<?xml version="1.0" encoding="utf-8"?>
<!-- Generator: Adobe Illustrator 24.2.0, SVG Export Plug-In . SVG Version: 6.00 Build 0)  -->
<svg version="1.1" id="Layer_1" xmlns="http://www.w3.org/2000/svg" xmlns:xlink="http://www.w3.org/1999/xlink" x="0px" y="0px"
	 viewBox="0 0 500 500" style="enable-background:new 0 0 500 500;" xml:space="preserve">
<style type="text/css">
	.st0{fill:#65A798;}
	.st1{enable-background:new    ;}
	.st2{fill:#FFFFFF;}
</style>
<image style="overflow:visible;opacity:5.000000e-02;enable-background:new    ;" width="428" height="388" xlink:href="4BD68ACF62CB2813.png"  transform="matrix(1 0 0 1 43 63)">
</image>
<path class="st0" d="M384.1,132.9c35.6,31.3,64.2,81.7,64.6,144s-27.4,136.3-73.4,149.7S265,392.7,204.4,356.3
	S86.9,294.7,63.6,246.2s-13-119.8,25.8-151.9s106.2-24.7,161.3-14.9S348.5,101.6,384.1,132.9z"/>
<g class="st1">
	<path class="st2" d="M176.3,253.4v-5.1l4.1-0.5c0.9-0.1,1-0.3,1-1.3v-33.7c0-1-0.1-1.2-1-1.3l-4.1-0.5v-5.2h34.9v13.2l-7.2-0.3
		l-0.9-5c-0.1-0.7-0.4-0.9-1.1-0.9h-10.3v12.9H207v7.3h-15.3v13.2h11.7c0.7,0,0.9-0.1,1-0.7l1-5.8h7.2v13.5H176.3z"/>
	<path class="st2" d="M254.1,253.4v-5.1l5.4-0.5c0.9-0.1,1-0.4,1-1.3v-24.9h-0.3l-9.4,22.4h-10.7l-9.2-22.4h-0.3v24.9
		c0,1,0.1,1.2,1,1.3l5.6,0.5v5.1h-19.9v-5.1l4.1-0.5c0.9-0.1,1-0.3,1-1.3v-33.7c0-1-0.1-1.2-1-1.3l-4.1-0.5v-5.2H235l11.4,29.7h0.3
		l12-29.7h17.1v5.1l-4.4,0.5c-1,0.1-1,0.3-1,1.2v33.7c0,0.9,0.2,1.1,1,1.2l4.4,0.5v5.1H254.1z"/>
	<path class="st2" d="M296,253.4l-13.2-40.5c-0.3-0.8-0.8-0.9-1.6-1.1l-3-0.7l0.7-5.1h19.9v5.1l-5.3,0.6l9.8,32.8h0.5l9.5-32.8
		l-5.2-0.6l0.7-5.1h17v5.1l-2.8,0.7c-0.8,0.2-1.4,0.5-1.6,1.2l-12,40.4H296z"/>
</g>
<g class="st1">
	<path class="st2" d="M197.9,288.5c0.2,0,0.3,0.1,0.5,0.2l1.3,1.4c-1,1.1-2.2,2-3.6,2.7s-3.1,1-5.1,1c-1.7,0-3.3-0.3-4.7-0.9
		c-1.4-0.6-2.6-1.4-3.6-2.5s-1.8-2.4-2.3-3.9c-0.5-1.5-0.8-3.2-0.8-5c0-1.8,0.3-3.5,0.9-5c0.6-1.5,1.4-2.8,2.4-3.9
		c1-1.1,2.3-1.9,3.7-2.5c1.4-0.6,3-0.9,4.8-0.9c1.7,0,3.2,0.3,4.5,0.8c1.3,0.5,2.4,1.3,3.4,2.2l-1.1,1.5c-0.1,0.1-0.2,0.2-0.3,0.3
		c-0.1,0.1-0.2,0.1-0.4,0.1c-0.2,0-0.4-0.1-0.7-0.3c-0.3-0.2-0.7-0.5-1.1-0.7c-0.5-0.3-1.1-0.5-1.8-0.7c-0.7-0.2-1.6-0.3-2.6-0.3
		c-1.2,0-2.4,0.2-3.4,0.6s-1.9,1-2.6,1.9s-1.3,1.8-1.7,3c-0.4,1.2-0.6,2.5-0.6,4c0,1.5,0.2,2.8,0.6,4c0.4,1.2,1,2.2,1.8,3
		s1.6,1.4,2.6,1.8c1,0.4,2.1,0.6,3.3,0.6c0.7,0,1.4,0,1.9-0.1c0.6-0.1,1.1-0.2,1.6-0.4c0.5-0.2,0.9-0.4,1.4-0.7
		c0.4-0.3,0.8-0.6,1.2-1C197.5,288.6,197.7,288.5,197.9,288.5z"/>
	<path class="st2" d="M222.9,293.5h-2.5c-0.3,0-0.5-0.1-0.7-0.2c-0.2-0.1-0.3-0.3-0.4-0.6l-2.2-5.8h-10.7l-2.2,5.8
		c-0.1,0.2-0.2,0.4-0.4,0.5s-0.4,0.2-0.7,0.2h-2.5l9.6-23.9h3.3L222.9,293.5z M216.1,284.6l-3.8-9.7c-0.1-0.3-0.2-0.6-0.4-1
		c-0.1-0.4-0.2-0.8-0.4-1.2c-0.2,0.9-0.5,1.7-0.7,2.3l-3.8,9.7H216.1z"/>
</g>
<g class="st1">
	<path class="st2" d="M233.1,269.5c1.5,0,2.8,0.2,3.9,0.5c1.1,0.4,2,0.8,2.8,1.5c0.7,0.6,1.3,1.4,1.6,2.3c0.4,0.9,0.5,1.9,0.5,3.1
		c0,1.1-0.2,2.1-0.6,3.1s-1,1.7-1.7,2.4c-0.8,0.7-1.7,1.2-2.8,1.6c-1.1,0.4-2.4,0.6-3.8,0.6h-3.8v9H226v-23.9H233.1z M233.1,282
		c0.9,0,1.7-0.1,2.4-0.4s1.3-0.6,1.8-1s0.8-1,1.1-1.6c0.2-0.6,0.4-1.3,0.4-2c0-1.5-0.5-2.7-1.4-3.6s-2.4-1.3-4.3-1.3h-3.8v9.9H233.1
		z"/>
</g>
<g class="st1">
	<path class="st2" d="M263.8,293.5h-2.5c-0.3,0-0.5-0.1-0.7-0.2c-0.2-0.1-0.3-0.3-0.4-0.6l-2.2-5.8h-10.7l-2.2,5.8
		c-0.1,0.2-0.2,0.4-0.4,0.5c-0.2,0.2-0.4,0.2-0.7,0.2h-2.5l9.6-23.9h3.3L263.8,293.5z M257.1,284.6l-3.8-9.7c-0.1-0.3-0.2-0.6-0.4-1
		c-0.1-0.4-0.2-0.8-0.4-1.2c-0.2,0.9-0.5,1.7-0.7,2.3l-3.8,9.7H257.1z"/>
	<path class="st2" d="M274.6,269.5c1.5,0,2.7,0.1,3.8,0.4c1.1,0.3,1.9,0.7,2.6,1.2c0.7,0.5,1.2,1.2,1.5,2s0.5,1.6,0.5,2.6
		c0,0.6-0.1,1.2-0.3,1.7c-0.2,0.5-0.5,1-0.8,1.5c-0.4,0.5-0.8,0.9-1.4,1.3c-0.6,0.4-1.2,0.7-2,0.9c1.8,0.3,3.1,1,4,1.9
		c0.9,0.9,1.3,2.1,1.3,3.6c0,1-0.2,1.9-0.6,2.8c-0.4,0.8-0.9,1.6-1.6,2.2c-0.7,0.6-1.6,1.1-2.6,1.4c-1,0.3-2.2,0.5-3.6,0.5H267
		v-23.9H274.6z M270.2,272.1v8.2h4.3c0.9,0,1.7-0.1,2.4-0.3c0.7-0.2,1.2-0.5,1.7-0.8c0.4-0.4,0.8-0.8,1-1.3c0.2-0.5,0.3-1.1,0.3-1.7
		c0-1.4-0.4-2.4-1.3-3.1c-0.8-0.7-2.2-1-3.9-1H270.2z M275.4,290.9c0.9,0,1.7-0.1,2.4-0.3c0.7-0.2,1.2-0.5,1.6-0.9
		c0.4-0.4,0.7-0.8,0.9-1.4s0.3-1.1,0.3-1.7c0-1.2-0.4-2.2-1.3-2.9c-0.9-0.7-2.2-1.1-4-1.1h-5.2v8.3H275.4z"/>
	<path class="st2" d="M302.2,290.8v2.7h-13.6v-23.9h3.2v21.2H302.2z"/>
	<path class="st2" d="M320.5,290.8l0,2.6h-14.7v-23.9h14.7v2.6H309v7.9h9.3v2.5H309v8.2H320.5z"/>
</g>
</svg>
