<svg id="Layer_1" data-name="Layer 1" xmlns="http://www.w3.org/2000/svg" xmlns:xlink="http://www.w3.org/1999/xlink" viewBox="0 0 500 500"><defs><style>.cls-1,.cls-8,.cls-9{fill:none;}.cls-1{clip-rule:evenodd;}.cls-2{fill:#f2f2f2;}.cls-2,.cls-3,.cls-4,.cls-7{fill-rule:evenodd;}.cls-3{fill:#e5e5e5;}.cls-10,.cls-4{fill:#3f2a5f;}.cls-5{clip-path:url(#clip-path);}.cls-6{fill:#161839;}.cls-7{fill:#fff;}.cls-8,.cls-9{stroke:#e5e5e5;stroke-miterlimit:1.5;}.cls-8{stroke-linecap:round;stroke-width:5px;stroke-dasharray:0 10 0 10;}.cls-9{stroke-width:3px;}.cls-10{opacity:0.25;}</style><clipPath id="clip-path"><path class="cls-1" d="M499.65,31.28A31.27,31.27,0,0,0,468.37,0H31.54A31.27,31.27,0,0,0,.26,31.28V62.5H499.65Z"/></clipPath></defs><path class="cls-2" d="M500,43.46H0V472.19C0,487.55,13.64,500,30.45,500h439.1c16.81,0,30.45-12.45,30.45-27.81Z"/><path class="cls-3" d="M499.65,333.33H.26V469.55A30.45,30.45,0,0,0,30.71,500H469.19a30.45,30.45,0,0,0,30.46-30.45Z"/><path class="cls-4" d="M500,31.28A31.29,31.29,0,0,0,468.69,0H31.56A31.29,31.29,0,0,0,.26,31.28V62.5H500Z"/><g class="cls-5"><circle class="cls-6" cx="12.09" cy="54" r="3"/><circle class="cls-6" cx="12.09" cy="35.43" r="3"/><circle class="cls-6" cx="12.09" cy="15.73" r="3"/><circle class="cls-6" cx="34.14" cy="54" r="3"/><circle class="cls-6" cx="34.14" cy="35.43" r="3"/><circle class="cls-6" cx="34.14" cy="15.73" r="3"/><circle class="cls-6" cx="56.23" cy="54" r="3"/><circle class="cls-6" cx="56.23" cy="35.43" r="3"/><circle class="cls-6" cx="56.23" cy="15.73" r="3"/><circle class="cls-6" cx="78.28" cy="54" r="3"/><circle class="cls-6" cx="78.28" cy="35.43" r="3"/><circle class="cls-6" cx="78.28" cy="15.73" r="3"/><circle class="cls-6" cx="100.29" cy="54" r="3"/><circle class="cls-6" cx="100.29" cy="35.43" r="3"/><circle class="cls-6" cx="100.29" cy="15.73" r="3"/><circle class="cls-6" cx="122.31" cy="54" r="3"/><circle class="cls-6" cx="122.31" cy="35.43" r="3"/><circle class="cls-6" cx="122.31" cy="15.73" r="3"/><circle class="cls-6" cx="144.43" cy="54" r="3"/><circle class="cls-6" cx="144.43" cy="35.43" r="3"/><circle class="cls-6" cx="144.43" cy="15.73" r="3"/><circle class="cls-6" cx="166.58" cy="54" r="3"/><circle class="cls-6" cx="166.58" cy="35.43" r="3"/><circle class="cls-6" cx="166.58" cy="15.73" r="3"/><circle class="cls-6" cx="188.62" cy="54" r="3"/><circle class="cls-6" cx="188.62" cy="35.43" r="3"/><circle class="cls-6" cx="188.62" cy="15.73" r="3"/><circle class="cls-6" cx="210.67" cy="35.43" r="3"/><circle class="cls-6" cx="210.67" cy="15.73" r="3"/><circle class="cls-6" cx="232.31" cy="15.73" r="3"/><circle class="cls-6" cx="10.69" cy="-1" r="3"/><circle class="cls-6" cx="1" cy="46" r="3"/><circle class="cls-6" cx="0.9" cy="26.63" r="3"/><circle class="cls-6" cx="23.11" cy="6.22" r="3"/><circle class="cls-6" cx="23.11" cy="26.63" r="3"/><circle class="cls-6" cx="23.11" cy="45.46" r="3"/><circle class="cls-6" cx="45.19" cy="6.22" r="3"/><circle class="cls-6" cx="45.19" cy="26.63" r="3"/><circle class="cls-6" cx="45.19" cy="45.46" r="3"/><circle class="cls-6" cx="67.25" cy="6.22" r="3"/><circle class="cls-6" cx="67.25" cy="26.63" r="3"/><circle class="cls-6" cx="67.25" cy="45.46" r="3"/><circle class="cls-6" cx="89.3" cy="6.22" r="3"/><circle class="cls-6" cx="89.3" cy="26.63" r="3"/><circle class="cls-6" cx="89.3" cy="45.46" r="3"/><circle class="cls-6" cx="111.31" cy="6.22" r="3"/><circle class="cls-6" cx="111.31" cy="26.63" r="3"/><circle class="cls-6" cx="111.31" cy="45.46" r="3"/><circle class="cls-6" cx="133.36" cy="6.22" r="3"/><circle class="cls-6" cx="133.36" cy="26.63" r="3"/><circle class="cls-6" cx="133.36" cy="45.46" r="3"/><circle class="cls-6" cx="155.51" cy="6.22" r="3"/><circle class="cls-6" cx="155.51" cy="26.63" r="3"/><circle class="cls-6" cx="155.51" cy="45.46" r="3"/><circle class="cls-6" cx="177.56" cy="6.22" r="3"/><circle class="cls-6" cx="177.56" cy="26.63" r="3"/><circle class="cls-6" cx="177.56" cy="45.46" r="3"/><circle class="cls-6" cx="199.71" cy="6.22" r="3"/><circle class="cls-6" cx="199.71" cy="26.63" r="3"/><circle class="cls-6" cx="199.71" cy="45.46" r="3"/><circle class="cls-6" cx="221.14" cy="6.22" r="3"/><circle class="cls-6" cx="243.38" cy="6.22" r="3"/><circle class="cls-6" cx="221.14" cy="26.63" r="3"/></g><path class="cls-7" d="M416.31,416.67a20.84,20.84,0,0,0-20.83-20.84H103.81A20.84,20.84,0,0,0,83,416.67h0a20.83,20.83,0,0,0,20.83,20.83H395.48a20.83,20.83,0,0,0,20.83-20.83Z"/><line class="cls-8" x1="110.79" y1="416.67" x2="298.15" y2="416.67"/><path class="cls-7" d="M416.31,333.33a20.83,20.83,0,0,0-20.83-20.83H103.81A20.83,20.83,0,0,0,83,333.33h0a20.84,20.84,0,0,0,20.83,20.84H395.48a20.84,20.84,0,0,0,20.83-20.84Z"/><line class="cls-9" x1="110.79" y1="333.33" x2="249.95" y2="333.33"/><circle class="cls-10" cx="249.65" cy="187.5" r="62.5"/><path class="cls-4" d="M286,237.59a36.37,36.37,0,0,0-36.38-36.37h0a36.37,36.37,0,0,0-36.38,36.37v33H286Z"/><path class="cls-4" d="M249.65,152.72a18.19,18.19,0,1,1-18.19,18.18A18.2,18.2,0,0,1,249.65,152.72Z"/></svg>