<svg id="Layer_1" data-name="Layer 1" xmlns="http://www.w3.org/2000/svg" viewBox="0 0 200 100"><defs><style>.cls-1{opacity:0.25;}.cls-2,.cls-3{fill:#58595b;}.cls-2{fill-rule:evenodd;}</style></defs><g class="cls-1"><path class="cls-2" d="M23.9,47.6h8.78a5.11,5.11,0,0,0,.76,1.83l-6.21,6.21a13.87,13.87,0,0,1-3.33-8"/><path class="cls-2" d="M28.72,57.13l6.21-6.21a5.22,5.22,0,0,0,1.83.76v8.78a13.87,13.87,0,0,1-8-3.33"/><path class="cls-2" d="M38.86,60.46V51.68a5.35,5.35,0,0,0,1.84-.76l6.2,6.21a13.94,13.94,0,0,1-8,3.33"/><path class="cls-2" d="M27.23,37.45l6.21,6.21a5,5,0,0,0-.76,1.84H23.9a13.84,13.84,0,0,1,3.33-8"/><path class="cls-2" d="M28.71,36a13.94,13.94,0,0,1,8-3.34v8.78a5.18,5.18,0,0,0-1.84.77Z"/><path class="cls-2" d="M46.9,36l-6.2,6.2a5.35,5.35,0,0,0-1.84-.76V32.64a13.81,13.81,0,0,1,8,3.33"/><path class="cls-2" d="M51.72,45.5H42.94a5.16,5.16,0,0,0-.76-1.84l6.21-6.21a13.9,13.9,0,0,1,3.33,8"/><path class="cls-2" d="M48.39,55.64l-6.21-6.21a5.11,5.11,0,0,0,.76-1.83h8.78a13.87,13.87,0,0,1-3.33,8"/><path class="cls-3" d="M62.2,34.48l-10.38,26h3.1l2.9-7.23H68.09L71,60.45H74.1L62.94,32.64Zm4.67,15.78H59l3.93-9.85Z"/><path class="cls-3" d="M85.66,43.22a10.93,10.93,0,0,0-3-.37,10,10,0,0,0-3.54.62,8.72,8.72,0,0,0-2.93,1.89,8.25,8.25,0,0,0-1.95,2.84,9.51,9.51,0,0,0,0,6.91A8.25,8.25,0,0,0,76.24,58a8.55,8.55,0,0,0,2.93,1.88,9.76,9.76,0,0,0,3.54.63,10.27,10.27,0,0,0,2.79-.38A9.58,9.58,0,0,0,88,59l.4-.26V54.43L87,55.67a6.31,6.31,0,0,1-4.27,1.57,6.61,6.61,0,0,1-2.35-.4,5.44,5.44,0,0,1-1.84-1.17h0a5.19,5.19,0,0,1-1.21-1.76,6.51,6.51,0,0,1,0-4.52,5,5,0,0,1,1.2-1.77,5.26,5.26,0,0,1,1.82-1.15,6.88,6.88,0,0,1,2.37-.39,8.06,8.06,0,0,1,2.43.42l1,.5,2.3,1.46V44.62l-.35-.26a7,7,0,0,0-2.4-1.14"/><path class="cls-3" d="M102.18,43.16a11,11,0,0,0-3-.37,9.8,9.8,0,0,0-3.54.63,8.7,8.7,0,0,0-2.93,1.88h0a8.39,8.39,0,0,0-2,2.84,9.51,9.51,0,0,0,0,6.91,8.39,8.39,0,0,0,2,2.84h0a8.72,8.72,0,0,0,2.93,1.89A10.42,10.42,0,0,0,102,60a9.3,9.3,0,0,0,2.51-1.13l.4-.25V54.38l-1.43,1.23a6.74,6.74,0,0,1-6.61,1.17A5.2,5.2,0,0,1,95,55.61h0a5.06,5.06,0,0,1-1.2-1.77,5.85,5.85,0,0,1-.41-2.24,5.93,5.93,0,0,1,.41-2.27A5.14,5.14,0,0,1,95,47.55h0a5.26,5.26,0,0,1,1.82-1.15A6.88,6.88,0,0,1,99.22,46a8,8,0,0,1,2.43.42l1,.51,2.3,1.45V44.56l-.35-.26a7.15,7.15,0,0,0-2.39-1.14"/><path class="cls-3" d="M117.47,43.11V53.55a5.59,5.59,0,0,1-.23,1.72,2.73,2.73,0,0,1-.44.87,2,2,0,0,1-.46.46,2.8,2.8,0,0,1-1,.47,5.34,5.34,0,0,1-1.43.17,4.8,4.8,0,0,1-1.66-.25,2.92,2.92,0,0,1-.56-.27,2.14,2.14,0,0,1-.42-.37,2.18,2.18,0,0,1-.32-.49,3.59,3.59,0,0,1-.34-1,6.6,6.6,0,0,1-.12-1.32V43.11H107.2V53.55a8.73,8.73,0,0,0,.43,2.82A6,6,0,0,0,109,58.6a5.6,5.6,0,0,0,1,.82,6.06,6.06,0,0,0,1.82.79,8.66,8.66,0,0,0,2.14.25,8.18,8.18,0,0,0,2.82-.46,6.12,6.12,0,0,0,1.2-.6,5.84,5.84,0,0,0,1-.84,5.9,5.9,0,0,0,1.34-2.22,8.55,8.55,0,0,0,.43-2.79V43.11Z"/><path class="cls-3" d="M133.59,46.66h0a7.59,7.59,0,0,0,2.63-1.33,6.34,6.34,0,0,0,1-1A6.43,6.43,0,0,0,138,43h0a8.15,8.15,0,0,0,.61-3.27,8.69,8.69,0,0,0-.16-1.64,6.53,6.53,0,0,0-.5-1.47,7.08,7.08,0,0,0-1.76-2.28h0A7.34,7.34,0,0,0,133.57,33a10.36,10.36,0,0,0-3.11-.46h-7V60.31h2.87V47.07h1.93L137,60.31h3.44L131.59,47a12.44,12.44,0,0,0,2-.36m-7.26-11.31h4.09a7.47,7.47,0,0,1,2.11.29,4.87,4.87,0,0,1,1.66.82,3.35,3.35,0,0,1,.61.58,3.69,3.69,0,0,1,.46.74h0a3.71,3.71,0,0,1,.3.87,5.48,5.48,0,0,1,.1,1,5.28,5.28,0,0,1-.34,2,3.23,3.23,0,0,1-.4.76,4,4,0,0,1-.55.62h0a4.57,4.57,0,0,1-1.52.87,6.49,6.49,0,0,1-2,.3h-4.51Z"/><path class="cls-3" d="M154.69,45.69A8.41,8.41,0,0,0,151.86,44a10.11,10.11,0,0,0-3.45-.57,9.66,9.66,0,0,0-3.49.61,8.49,8.49,0,0,0-2.87,1.84,7.89,7.89,0,0,0-1.88,2.76,8.93,8.93,0,0,0-.63,3.39,8.7,8.7,0,0,0,.64,3.38,8.08,8.08,0,0,0,1.9,2.77A8.22,8.22,0,0,0,144.92,60a10.41,10.41,0,0,0,6.37.21,8.78,8.78,0,0,0,2.93-1.52,8.36,8.36,0,0,0,2.06-2.5l.35-.64L154,54.39l-.31.48a7.74,7.74,0,0,1-1.28,1.56,4.42,4.42,0,0,1-1.36.89,7.18,7.18,0,0,1-2.67.47,7.4,7.4,0,0,1-2.57-.42A5,5,0,0,1,144,56.14a5.24,5.24,0,0,1-1.15-1.9,7.28,7.28,0,0,1-.37-1.91h14.81v-.66a8.19,8.19,0,0,0-.63-3.32,7.58,7.58,0,0,0-1.92-2.66M144.4,47.53a4.9,4.9,0,0,1,1.73-1,7.21,7.21,0,0,1,2.28-.33,6.83,6.83,0,0,1,2,.28,6.07,6.07,0,0,1,1.75.86h0a4.77,4.77,0,0,1,1.33,1.32,4.87,4.87,0,0,1,.45.88h-11a7.39,7.39,0,0,1,.56-1,5.57,5.57,0,0,1,.9-1"/><path class="cls-3" d="M173.2,43.66v1.76a8.5,8.5,0,0,0-1.91-1.2,9,9,0,0,0-3.75-.78,9.21,9.21,0,0,0-3.43.62,8.65,8.65,0,0,0-2.86,1.86,8.41,8.41,0,0,0-1.91,2.76,9,9,0,0,0,0,6.66,8.43,8.43,0,0,0,1.94,2.78A8.25,8.25,0,0,0,164.12,60a9.36,9.36,0,0,0,3.42.62,8.87,8.87,0,0,0,3.77-.79,8,8,0,0,0,1.89-1.19v.68a6.7,6.7,0,0,1-.37,2.31,4.47,4.47,0,0,1-1.08,1.66h0a4.72,4.72,0,0,1-1.7,1,7.44,7.44,0,0,1-2.4.36,10.28,10.28,0,0,1-1.91-.17,7,7,0,0,1-1.57-.48h0a4.53,4.53,0,0,1-.79-.44,3.24,3.24,0,0,1-.81-.8,2.88,2.88,0,0,1-.44-1l-.12-.51h-3l.21.83a7.31,7.31,0,0,0,1.06,2.37,6.61,6.61,0,0,0,1.28,1.36,7.57,7.57,0,0,0,2.64,1.29,12.8,12.8,0,0,0,3.41.41,9.72,9.72,0,0,0,3.39-.56,7.82,7.82,0,0,0,2.71-1.7,7.44,7.44,0,0,0,1.77-2.64,9,9,0,0,0,.58-3.29V43.66Zm-1.45,12.42h0a5.54,5.54,0,0,1-1.91,1.25,6.08,6.08,0,0,1-2.3.42,6,6,0,0,1-2.28-.42,6.11,6.11,0,0,1-1.94-1.28A5.81,5.81,0,0,1,162,54.19a5.42,5.42,0,0,1-.44-2.19,5.48,5.48,0,0,1,.44-2.21,5.74,5.74,0,0,1,1.31-1.87,6.06,6.06,0,0,1,1.91-1.25,6.33,6.33,0,0,1,2.31-.42,6,6,0,0,1,2.28.43A5.91,5.91,0,0,1,171.75,48a5.63,5.63,0,0,1,1.32,1.86A5.4,5.4,0,0,1,173.5,52a5.48,5.48,0,0,1-.43,2.21,5.57,5.57,0,0,1-1.32,1.87"/></g></svg>