<svg id="Layer_1" data-name="Layer 1" xmlns="http://www.w3.org/2000/svg" viewBox="0 0 200 100"><defs><style>.cls-1{opacity:0.25;}.cls-2{fill:#58595b;}</style></defs><g class="cls-1"><path class="cls-2" d="M34.53,51.64c2.2-1.89,2-8.32-.4-6.61-3.38,2.38-6.82,5-9,6.3a58.39,58.39,0,0,1-10.34,4.8c-.82.29-1,.29-1,.44s.26.17,1,.13A61,61,0,0,0,30.4,53.81,10.37,10.37,0,0,0,34.53,51.64Z"/><path class="cls-2" d="M35.7,59.86c3.71-1.6,5.31-7.81,2.17-6.63a90.2,90.2,0,0,1-13.13,3.6,61.93,61.93,0,0,1-13.06.85c-.47,0-.87-.09-.93.08s.27.3.79.55c4,1.87,10.75,3.07,18,2.71A16.45,16.45,0,0,0,35.7,59.86Z"/><path class="cls-2" d="M30.19,44.73c1.53-3.13-1.23-7.88-2.24-6A82,82,0,0,1,22.42,47,57.66,57.66,0,0,1,17,53.39c-.44.44-.73.67-.65.77s.3,0,.76-.19A50.33,50.33,0,0,0,27.5,47.79,7.7,7.7,0,0,0,30.19,44.73Z"/><path class="cls-2" d="M126.28,56.52a11.41,11.41,0,0,1-3,2.2,7.84,7.84,0,0,1-3.52.74,7.5,7.5,0,0,1-3.11-.65,7.73,7.73,0,0,1-2.5-1.79,8.29,8.29,0,0,1-1.26-1.8c-.12-.24-.23-.48-.33-.73A9.26,9.26,0,0,1,112,51V51a9.27,9.27,0,0,1,.63-3.44c.1-.26.22-.5.33-.74A8.12,8.12,0,0,1,114.16,45a7.62,7.62,0,0,1,2.49-1.78,7.74,7.74,0,0,1,3.12-.64,8.4,8.4,0,0,1,1.94.22,8.1,8.1,0,0,1,1.66.57,7.69,7.69,0,0,1,1.43.87,14.06,14.06,0,0,1,1.31,1.12l.28.27L128,44l-.3-.27a15.87,15.87,0,0,0-1.59-1.3,10.4,10.4,0,0,0-1.77-1,10,10,0,0,0-2.06-.67,12.32,12.32,0,0,0-2.46-.23,10,10,0,0,0-4.08.83,10.1,10.1,0,0,0-3.22,2.27A10.72,10.72,0,0,0,110.38,47a10.87,10.87,0,0,0-.77,4.07v.06a11,11,0,0,0,.76,4.09,10.16,10.16,0,0,0,2.11,3.33,9.89,9.89,0,0,0,3.22,2.23,10.07,10.07,0,0,0,4,.82,11.17,11.17,0,0,0,2.46-.27,9.71,9.71,0,0,0,2.11-.73,10.47,10.47,0,0,0,1.84-1.11A19.59,19.59,0,0,0,127.8,58l.29-.28-1.54-1.5Zm12.16-10.58h-.38a7,7,0,0,0-2.16.29,6.38,6.38,0,0,0-1.89.92,7.28,7.28,0,0,0-1.53,1.46,4.74,4.74,0,0,0-.37.51v-3H130V61.22h2.16V55a8.45,8.45,0,0,1,.47-2.93,6.3,6.3,0,0,1,1.28-2.11,5.14,5.14,0,0,1,1.84-1.28,5.73,5.73,0,0,1,2.21-.44h.53Zm12.21,2.18a6.58,6.58,0,0,0-2.19-1.69,6.73,6.73,0,0,0-2.89-.61,6.5,6.5,0,0,0-2.85.63,7.26,7.26,0,0,0-2.27,1.68,8.11,8.11,0,0,0-1.5,2.49,8.53,8.53,0,0,0-.54,3v.06a8.48,8.48,0,0,0,.59,3.2,7.49,7.49,0,0,0,1.61,2.47,7.32,7.32,0,0,0,5.21,2.17,7.45,7.45,0,0,0,3.62-.82,10.33,10.33,0,0,0,2.58-2l.27-.29-1.53-1.35-.26.27a8.2,8.2,0,0,1-2,1.53,5.51,5.51,0,0,1-2.66.59,5.29,5.29,0,0,1-1.9-.35,4.71,4.71,0,0,1-1.59-1,5.91,5.91,0,0,1-1.19-1.64,5.61,5.61,0,0,1-.51-1.81h11.75l0-.33a1.53,1.53,0,0,0,0-.33v-.29a9.56,9.56,0,0,0-.49-3.08A7.62,7.62,0,0,0,150.65,48.12Zm-10,4.51a6.47,6.47,0,0,1,.46-1.66,5.94,5.94,0,0,1,1.07-1.65,4.39,4.39,0,0,1,1.49-1.07,4.32,4.32,0,0,1,1.83-.39,4.42,4.42,0,0,1,2,.42A4.2,4.2,0,0,1,149,49.41a5.53,5.53,0,0,1,.92,1.65,7.34,7.34,0,0,1,.37,1.57Zm26.08-4.16c-.11-.14-.23-.27-.35-.4a7.89,7.89,0,0,0-1.35-1.15,7.07,7.07,0,0,0-1.71-.8,7,7,0,0,0-4.76.25,7.13,7.13,0,0,0-2.35,1.57,7.63,7.63,0,0,0-1.67,2.47,8.2,8.2,0,0,0-.63,3.28v.05a8.17,8.17,0,0,0,.63,3.28,7.48,7.48,0,0,0,1.67,2.46A7.15,7.15,0,0,0,158.59,61a7,7,0,0,0,2.68.54,6.51,6.51,0,0,0,2.07-.32,6.79,6.79,0,0,0,3-2c.13-.14.25-.29.37-.43v2.41h2.15V40h-2.15Zm.09,5.25a5.72,5.72,0,0,1-1.69,4.14A5.26,5.26,0,0,1,163.42,59a5.15,5.15,0,0,1-4,0,5,5,0,0,1-1.67-1.15,5.37,5.37,0,0,1-1.14-1.81,6.63,6.63,0,0,1-.42-2.41v-.06a6.78,6.78,0,0,1,.41-2.42,5.22,5.22,0,0,1,1.11-1.79,4.67,4.67,0,0,1,1.65-1.11,5.36,5.36,0,0,1,2.06-.39,5.25,5.25,0,0,1,2,.41,5.55,5.55,0,0,1,3,3,5.93,5.93,0,0,1,.46,2.35Zm5.36,7.5h2.15V46.16h-2.15Zm-.16-18h2.48V40.56h-2.48Zm14,5v-2h-5V41.59h-2.15v4.57h-2.07v2h2.07v9a5,5,0,0,0,.34,1.9,3.68,3.68,0,0,0,1,1.37,3.6,3.6,0,0,0,1.41.8,5.8,5.8,0,0,0,1.69.24,6.5,6.5,0,0,0,1.3-.13,6.13,6.13,0,0,0,1.18-.41l.23-.1V58.7l-.54.23a6.2,6.2,0,0,1-1,.35,4.57,4.57,0,0,1-.93.1,2.88,2.88,0,0,1-1.82-.54A2.21,2.21,0,0,1,181,57V48.2Z"/><path class="cls-2" d="M55.06,61.7A10.68,10.68,0,0,1,44.21,50.82v-.06a10.75,10.75,0,0,1,11-10.94,10.93,10.93,0,0,1,8.34,3.26l-3,3.42a7.82,7.82,0,0,0-5.41-2.39c-3.57,0-6.13,3-6.13,6.59v.06c0,3.62,2.5,6.64,6.13,6.64a7.62,7.62,0,0,0,5.56-2.47l3,3A10.8,10.8,0,0,1,55.06,61.7Z"/><path class="cls-2" d="M74.88,61.33V59.58A6.23,6.23,0,0,1,70,61.64c-3.06,0-5.56-1.76-5.56-5v-.06c0-3.54,2.69-5.17,6.52-5.17a11.36,11.36,0,0,1,4,.67v-.27c0-1.91-1.18-3-3.47-3a12,12,0,0,0-4.48.88l-1.14-3.5A14.19,14.19,0,0,1,72.1,45c5,0,7.22,2.59,7.22,7v9.39ZM75,54.81A7,7,0,0,0,72,54.2c-2,0-3.17.79-3.17,2.24v.06c0,1.24,1,2,2.51,2,2.14,0,3.59-1.18,3.59-2.84Z"/><path class="cls-2" d="M90.69,49.64c-3.06,0-4.93,1.84-4.93,5.71v6H81.17V45.14h4.59V48.4c.94-2.24,2.45-3.69,5.17-3.57v4.81Z"/><path class="cls-2" d="M107.09,54.84H95.82a3.77,3.77,0,0,0,4,3.17,5.31,5.31,0,0,0,3.93-1.66l2.63,2.32a8.55,8.55,0,0,1-15.08-5.34v-.06c0-4.63,3.29-8.44,8-8.44,5.41,0,7.88,4.21,7.88,8.8v.06C107.15,54.14,107.12,54.41,107.09,54.84Zm-7.82-6.32c-1.91,0-3.15,1.36-3.51,3.45h6.92C102.41,49.91,101.2,48.52,99.27,48.52Z"/><path class="cls-2" d="M189.25,41.88a1.83,1.83,0,0,1-1.86,1.86,1.85,1.85,0,1,1,0-3.7A1.82,1.82,0,0,1,189.25,41.88Zm-3.33,0a1.48,1.48,0,0,0,1.49,1.52,1.45,1.45,0,0,0,1.44-1.51,1.47,1.47,0,1,0-2.93,0Zm1.14,1h-.36V41a3.33,3.33,0,0,1,.67-.06.89.89,0,0,1,.6.15.48.48,0,0,1,.2.41.47.47,0,0,1-.37.45v0a.6.6,0,0,1,.31.47,1.28,1.28,0,0,0,.15.47h-.37a1.5,1.5,0,0,1-.16-.49c0-.22-.17-.31-.44-.31h-.23Zm0-1.08h.24c.26,0,.5-.08.5-.3s-.13-.32-.46-.32a1.6,1.6,0,0,0-.28,0Z"/></g></svg>