<svg id="Layer_1" data-name="Layer 1" xmlns="http://www.w3.org/2000/svg" xmlns:xlink="http://www.w3.org/1999/xlink" viewBox="0 0 200 100"><defs><style>.cls-1{fill:#58595b;}.cls-2{opacity:0.25;}.cls-3{clip-path:url(#clip-path);}.cls-4{clip-path:url(#clip-path-2);}.cls-5{clip-path:url(#clip-path-3);}</style><clipPath id="clip-path"><path class="cls-1" d="M48.83,52ZM34.31,49a11,11,0,0,0-1.68,2.21,10.67,10.67,0,0,0-1.07,2.57,11,11,0,0,0,5.09,12.42,10.61,10.61,0,0,0,2.72,1.12,1.49,1.49,0,0,0,.36,0,1.45,1.45,0,0,0,1.41-1.08c.13-.48.29-1.45.29-1.45h0s-.88-.15-1.4-.3h0c-.26-.08-.51-.17-.75-.26s-.43-.19-.63-.29l-.51-.28a8,8,0,0,1-4-7.58,7.09,7.09,0,0,1,.27-1.56.83.83,0,0,1,0-.15,8.09,8.09,0,0,1,.75-1.74,8.67,8.67,0,0,1,.53-.81h0a7.47,7.47,0,0,1,.69-.8,7.77,7.77,0,0,1,1.22-1,8.09,8.09,0,0,1,8.57-.31c.17.1.34.2.5.31a7.84,7.84,0,0,1,1.19.94l.06.06h0l.15.15c.33.34.65.72.75.85s.76-.63,1.11-1A1.45,1.45,0,0,0,50,49a11,11,0,0,0-15.64,0"/></clipPath><clipPath id="clip-path-2"><path class="cls-1" d="M13.49,47.18A10.94,10.94,0,0,0,11.17,49a1.44,1.44,0,0,0,0,2.05c.35.35,1.11,1,1.11,1a12.28,12.28,0,0,1,1-1.07,9.35,9.35,0,0,1,1.69-1.25A8.09,8.09,0,0,1,24.74,51,8.21,8.21,0,0,1,26,52.65a8,8,0,0,1-2.95,11,9.18,9.18,0,0,1-1.93.84c-.53.16-1.41.31-1.41.31s.17,1,.3,1.45a1.44,1.44,0,0,0,1.76,1,11.21,11.21,0,0,0,2.73-1.12,11,11,0,0,0,4-15A10.72,10.72,0,0,0,26.8,49a11,11,0,0,0-13.31-1.8"/></clipPath><clipPath id="clip-path-3"><path class="cls-1" d="M39.36,32.69c-.48.13-1.4.48-1.4.48s.31.82.44,1.36a9.24,9.24,0,0,1,.24,2.09,8.08,8.08,0,0,1-16.16,0,9.24,9.24,0,0,1,.24-2.09,12,12,0,0,1,.44-1.36s-.92-.35-1.4-.48a1.46,1.46,0,0,0-1.78,1A11,11,0,0,0,27.8,47.25a11.06,11.06,0,0,0,5.52,0,11,11,0,0,0,7.82-13.54,1.46,1.46,0,0,0-1.4-1.07,1.73,1.73,0,0,0-.38,0"/></clipPath></defs><g class="cls-2"><path class="cls-1" d="M22.94,33.77c-.08.24-.16.52-.22.76v0a8.06,8.06,0,0,0-.21,1.37.53.53,0,0,0,0,.12l.52.28a8,8,0,0,1,2.89,2.84A8.13,8.13,0,0,1,27,43.9c.2.09.41.19.62.27a8,8,0,0,0,.87.27,7.67,7.67,0,0,0,1.34.23A10.35,10.35,0,0,0,30,43.31a11,11,0,0,0-5.49-9.5,11.31,11.31,0,0,0-1.31-.64c0,.09-.12.32-.22.6"/><path class="cls-1" d="M37.92,33.18a10,10,0,0,0-1.27.63,11,11,0,0,0-5.4,10.86,7.67,7.67,0,0,0,1.34-.23c.24-.06.47-.13.7-.21s.53-.21.78-.33h0a8.09,8.09,0,0,1,1.75-5.63,7.93,7.93,0,0,1,2.27-2l.52-.28h0a8.3,8.3,0,0,0-.22-1.48v0c-.06-.25-.15-.53-.23-.77s-.18-.5-.21-.59h0"/><path class="cls-1" d="M34.39,54.39a.83.83,0,0,0,0,.15,7.09,7.09,0,0,0-.27,1.56,8.08,8.08,0,0,1,4.55,7.27v0c0,.19,0,.38,0,.57.2.1.41.2.63.29s.46.18.75.26h0c.52.15,1.37.29,1.4.3a11.94,11.94,0,0,0,.1-1.46,11,11,0,0,0-6.71-10.11,8.18,8.18,0,0,0-.43,1.13"/><path class="cls-1" d="M19.59,63.37a12.26,12.26,0,0,0,.08,1.36.31.31,0,0,1,0,.1l.63-.12c.25,0,.54-.12.78-.19l.07,0a8.38,8.38,0,0,0,1.26-.5l.09,0a5.24,5.24,0,0,1,0-.56h0v0A8.06,8.06,0,0,1,27,56.1a8.5,8.5,0,0,0-.27-1.56,7.31,7.31,0,0,0-.48-1.28,11,11,0,0,0-6.7,10.11"/><path class="cls-1" d="M13.25,50.94h0c-.18.17-.37.38-.54.57l-.42.49a14.16,14.16,0,0,0,1.21.81,11,11,0,0,0,12.11-.75,7.35,7.35,0,0,0-.87-1c-.16-.17-.33-.33-.5-.48a8.87,8.87,0,0,0-.71-.54,9,9,0,0,1-.89.52,8.09,8.09,0,0,1-7.69-.21L14.45,50a7.8,7.8,0,0,0-1.2.94"/><path class="cls-1" d="M48.83,52ZM34.31,49a11,11,0,0,0-1.68,2.21,10.67,10.67,0,0,0-1.07,2.57,11,11,0,0,0,5.09,12.42,10.61,10.61,0,0,0,2.72,1.12,1.49,1.49,0,0,0,.36,0,1.45,1.45,0,0,0,1.41-1.08c.13-.48.29-1.45.29-1.45h0s-.88-.15-1.4-.3h0c-.26-.08-.51-.17-.75-.26s-.43-.19-.63-.29l-.51-.28a8,8,0,0,1-4-7.58,7.09,7.09,0,0,1,.27-1.56.83.83,0,0,1,0-.15,8.09,8.09,0,0,1,.75-1.74,8.67,8.67,0,0,1,.53-.81h0a7.47,7.47,0,0,1,.69-.8,7.77,7.77,0,0,1,1.22-1,8.09,8.09,0,0,1,8.57-.31c.17.1.34.2.5.31a7.84,7.84,0,0,1,1.19.94l.06.06h0l.15.15c.33.34.65.72.75.85s.76-.63,1.11-1A1.45,1.45,0,0,0,50,49a11,11,0,0,0-15.64,0"/><g class="cls-3"><rect class="cls-1" x="25.53" y="41.74" width="29.67" height="29.59" transform="translate(-28.53 47.67) rotate(-47.14)"/></g><path class="cls-1" d="M13.49,47.18A10.94,10.94,0,0,0,11.17,49a1.44,1.44,0,0,0,0,2.05c.35.35,1.11,1,1.11,1a12.28,12.28,0,0,1,1-1.07,9.35,9.35,0,0,1,1.69-1.25A8.09,8.09,0,0,1,24.74,51,8.21,8.21,0,0,1,26,52.65a8,8,0,0,1-2.95,11,9.18,9.18,0,0,1-1.93.84c-.53.16-1.41.31-1.41.31s.17,1,.3,1.45a1.44,1.44,0,0,0,1.76,1,11.21,11.21,0,0,0,2.73-1.12,11,11,0,0,0,4-15A10.72,10.72,0,0,0,26.8,49a11,11,0,0,0-13.31-1.8"/><g class="cls-4"><rect class="cls-1" x="5.86" y="41.76" width="29.78" height="29.7" transform="translate(-34.86 33.31) rotate(-47.14)"/></g><path class="cls-1" d="M39.36,32.69c-.48.13-1.4.48-1.4.48s.31.82.44,1.36a9.24,9.24,0,0,1,.24,2.09,8.08,8.08,0,0,1-16.16,0,9.24,9.24,0,0,1,.24-2.09,12,12,0,0,1,.44-1.36s-.92-.35-1.4-.48a1.46,1.46,0,0,0-1.78,1A11,11,0,0,0,27.8,47.25a11.06,11.06,0,0,0,5.52,0,11,11,0,0,0,7.82-13.54,1.46,1.46,0,0,0-1.4-1.07,1.73,1.73,0,0,0-.38,0"/><g class="cls-5"><rect class="cls-1" x="17.46" y="26.94" width="26.21" height="26.21" transform="translate(-19.36 33.34) rotate(-45)"/></g><path class="cls-1" d="M46.17,50.31a8.1,8.1,0,0,1-8.35-.16h0L37.61,50h0l-.32.23a8.54,8.54,0,0,0-.73.62h-.2l0,0h0a9.4,9.4,0,0,0-.79,1,11,11,0,0,0,12.11.75A10.63,10.63,0,0,0,48.83,52l-.07-.09c-.13-.16-.41-.48-.68-.76L47.93,51l-.06,0a9.61,9.61,0,0,0-1.2-1c-.16.11-.33.21-.5.31"/><path class="cls-1" d="M59,42.86H63.5c5.06,0,7.81,2.82,7.81,7.06s-3.08,7.25-8.05,7.25H59ZM63.3,55c3.78,0,5.21-2.39,5.21-5.08,0-3-1.76-5-5.25-5H61.65V55Z"/><path class="cls-1" d="M72.64,43.68a1.6,1.6,0,0,1,3.19,0,1.57,1.57,0,0,1-1.61,1.55,1.53,1.53,0,0,1-1.58-1.55m.28,3.22h2.61V57.17H72.92Z"/><path class="cls-1" d="M76.41,59.3a2.77,2.77,0,0,1,1.85-2.48,1.43,1.43,0,0,1-.68-1.28,2.51,2.51,0,0,1,1.24-1.93,3.6,3.6,0,0,1-1.71-3.19c0-1.89,1.39-3.78,4.19-3.78a4.33,4.33,0,0,1,2,.45.21.21,0,0,0,.26,0,3.15,3.15,0,0,1,2.48-.89,6.43,6.43,0,0,1,.69,0l-.52,1.87a3.32,3.32,0,0,0-.76-.11,1.63,1.63,0,0,0-.76.18,3.51,3.51,0,0,1,.91,2.43c0,2.3-1.76,3.8-4.26,3.8a4.68,4.68,0,0,1-1.26-.17,1.46,1.46,0,0,0-.26.76c0,1.84,6.76.13,6.76,4,0,1.87-1.87,3.39-5.43,3.39-3,0-4.78-1.24-4.78-3m7.73-.09c0-1.47-3.19-1.17-4.58-1.71a1.72,1.72,0,0,0-.83,1.34c0,1,1.09,1.65,2.81,1.65,1.56,0,2.6-.52,2.6-1.28m-1-8.68a1.85,1.85,0,0,0-1.85-1.94,1.73,1.73,0,0,0-1.78,1.91,1.79,1.79,0,0,0,1.8,1.92,1.74,1.74,0,0,0,1.83-1.89"/><path class="cls-1" d="M87.92,46.9h2.22l.26,1.15a5.68,5.68,0,0,1,3.51-1.41c1.63,0,3.31.8,3.31,3.73v6.8H94.61v-6c0-1.26-.26-2.28-1.59-2.28A4.16,4.16,0,0,0,90.51,50v7.19H87.92Z"/><path class="cls-1" d="M98.73,43.68a1.6,1.6,0,1,1,1.59,1.55,1.55,1.55,0,0,1-1.59-1.55M99,46.9h2.6V57.17H99Z"/><path class="cls-1" d="M105.09,54.63V48.92h-1.84v-2h1.84V44.51l2.59-.76V46.9h3.11l-.64,2h-2.47V54c0,1,.33,1.3,1,1.3a2.81,2.81,0,0,0,1.56-.5l.78,1.78a5.83,5.83,0,0,1-3,.81,2.63,2.63,0,0,1-2.94-2.76"/><path class="cls-1" d="M111.78,59.84a3.39,3.39,0,0,0,1.55.39c1.15,0,2.06-.78,2.86-3.12L111.57,46.9h2.69l3.1,7.3h0l2.5-7.3h2.62L118.6,57.5c-1.6,4.28-3.3,4.82-5.17,4.82a5.6,5.6,0,0,1-2.3-.48Z"/><polygon class="cls-1" points="127.62 42.86 130.23 42.86 130.23 48.77 137.18 48.77 137.18 42.86 139.81 42.86 139.81 57.17 137.18 57.17 137.18 50.98 130.23 50.98 130.23 57.17 127.62 57.17 127.62 42.86"/><path class="cls-1" d="M141.41,52.05c0-3.09,1.69-5.41,4.62-5.41s4.56,2.08,4.56,5.49v.61H144a2.63,2.63,0,0,0,2.89,2.61,5.19,5.19,0,0,0,2.61-.7l.78,1.78a6.8,6.8,0,0,1-3.62,1c-3.76,0-5.26-2.56-5.26-5.34M148,50.94c-.05-1.17-.61-2.33-2-2.33a2.1,2.1,0,0,0-2,2.33Z"/><path class="cls-1" d="M158,56.19a4.2,4.2,0,0,1-2.95,1.2,3.2,3.2,0,0,1-3.41-3.28,2.92,2.92,0,0,1,1.74-2.8,6.4,6.4,0,0,1,2.65-.59l1.75-.06v-.33c0-1.19-.78-1.71-2-1.71a5.87,5.87,0,0,0-2.7.71l-.84-1.67a8.09,8.09,0,0,1,4-1c2.76,0,4.13,1.26,4.13,3.73v4.17a11.4,11.4,0,0,0,.19,2.63h-2.17Zm-1.61-3.75a3.27,3.27,0,0,0-1.49.32,1.23,1.23,0,0,0-.63,1.18,1.35,1.35,0,0,0,1.52,1.41,3.16,3.16,0,0,0,2-.76v-2.2Z"/><path class="cls-1" d="M162.16,41.8h2.59V54.15c0,.72.28.94.76.94a2.39,2.39,0,0,0,.65-.13l.5,2a4.87,4.87,0,0,1-1.91.37c-1.72,0-2.59-.84-2.59-2.47Z"/><path class="cls-1" d="M168.25,54.63V48.92H166.4v-2h1.85V44.51l2.58-.76V46.9h3.11l-.63,2h-2.48V54c0,1,.33,1.3,1,1.3a2.81,2.81,0,0,0,1.56-.5l.79,1.78a5.89,5.89,0,0,1-3,.81,2.63,2.63,0,0,1-2.93-2.76"/><path class="cls-1" d="M175.23,41.8h2.58V48a5.43,5.43,0,0,1,3.41-1.39c1.63,0,3.28.8,3.28,3.73v6.8h-2.58v-6c0-1.26-.26-2.28-1.59-2.28A4.14,4.14,0,0,0,177.81,50v7.19h-2.58Z"/><path class="cls-1" d="M186.4,55.29v1.88h-.29V55.29h-.59V55H187v.27ZM189,57.17V55.62l-.51,1h-.29l-.51-1v1.55h-.29V55h.29l.65,1.3L189,55h.28v2.15Z"/></g></svg>