<svg id="Layer_1" data-name="Layer 1" xmlns="http://www.w3.org/2000/svg" viewBox="0 0 200 100"><defs><style>.cls-1{opacity:0.25;}.cls-2{fill:#58595b;}</style></defs><g class="cls-1"><polygon class="cls-2" points="114.39 38.3 109.05 38.3 108.36 41.52 113.71 41.52 114.39 38.3"/><path class="cls-2" d="M122.2,46.06c2,0,3,.69,3.12,1.92h5.54c.19-4-3.06-5.45-8-5.45-5.1,0-8.94,1.84-10.56,5.54l1.06-5H108l-1,4.63c-.24-3.21-2.68-5-6.62-5a8.13,8.13,0,0,0-5.66,2.17h-.05l.38-1.81H89.9l-2.06,9.78H76l.57-3.07h10.6l.79-3.74H77.31l.58-3h12l.82-3.88h-18L69.13,56.76H87L86,61.7h5.36l1.31-6.18h0c.69,1,2.35,1.79,4.72,1.79a9.52,9.52,0,0,0,8.68-5l-.93,4.43h5.35l1-4.92c0,3.72,3,5.47,8.22,5.47,5.9,0,9-2.14,10.66-5.92h-5.65a4.25,4.25,0,0,1-4.16,2.39c-2.57,0-3.73-1.39-3.21-3.86a4.6,4.6,0,0,1,4.81-3.86M101.39,50a4.17,4.17,0,0,1-4.52,3.48c-2.5,0-3.52-1.36-3.06-3.48a4.26,4.26,0,0,1,4.54-3.47c2.44,0,3.52,1.2,3,3.47"/></g></svg>