<svg id="Layer_1" data-name="Layer 1" xmlns="http://www.w3.org/2000/svg" viewBox="0 0 200 100"><defs><style>.cls-1{opacity:0.25;}.cls-2{fill:#58595b;}</style></defs><g class="cls-1"><path class="cls-2" d="M50,54.87V40.54h3.2V54.87Z"/><path class="cls-2" d="M57.25,33h56.94v2.6H57.25Z"/><path class="cls-2" d="M78.19,60.77a18.2,18.2,0,0,1-5-.76l.49-2.73a21.12,21.12,0,0,0,4,.55c2.13,0,3.57-.36,3.57-2.88a4.17,4.17,0,0,0,0-.79,4.28,4.28,0,0,1-2.57.94c-3.05,0-6.47-.84-6.47-7.32,0-4.88,3.15-7.48,7-7.48a32.9,32.9,0,0,1,5.25.55V55.31C84.39,59.33,81,60.77,78.19,60.77Zm3-17.45a17.46,17.46,0,0,0-2.07-.16c-2.69,0-3.76,2-3.76,4.65,0,3.41,1.36,4.59,3.46,4.59a5.06,5.06,0,0,0,2.37-.71Z"/><path class="cls-2" d="M90.57,48.67c0,3.13,1.84,3.57,4.23,3.57a20.24,20.24,0,0,0,3.61-.36l.49,2.67a17.15,17.15,0,0,1-4.69.55c-4.18,0-6.84-1.55-6.84-7.16,0-5.83,2.74-7.74,6.5-7.74s5.42,2.72,5.42,7.21v1.26Zm3-5.85c-1.37,0-2.79,1-2.93,3.41H96C96,44,94.94,42.82,93.58,42.82Z"/><path class="cls-2" d="M118.22,54.87V40.54h3.2V54.87Z"/><path class="cls-2" d="M134.47,43.63a7.29,7.29,0,0,0-3.06-.63c-2,0-3.61,1.26-3.61,4.62s.8,4.67,4.32,4.67a14.94,14.94,0,0,0,2.71-.34l.44,2.68a13.21,13.21,0,0,1-3.37.47c-5.37,0-7.4-2.17-7.4-7.53,0-4.54,2.69-7.4,6.91-7.4a7.36,7.36,0,0,1,4,.92Z"/><path class="cls-2" d="M143.48,55.18c-4.1,0-6.4-2.75-6.4-7.35,0-4.83,2.66-7.66,6.62-7.66,4.45,0,6.52,2.75,6.52,7.53C150.22,52.64,147.34,55.18,143.48,55.18Zm.15-12.26c-2.62,0-3.32,2.32-3.32,4.81,0,2.68.8,4.67,3.37,4.67s3.25-2.1,3.25-4.7C146.93,45.26,146.29,42.92,143.63,42.92Z"/><path class="cls-2" d="M53.46,34.34a1.84,1.84,0,1,1-1.84-1.84A1.84,1.84,0,0,1,53.46,34.34Z"/><path class="cls-2" d="M121.66,34.34a1.84,1.84,0,1,1-1.84-1.84A1.84,1.84,0,0,1,121.66,34.34Z"/><path class="cls-2" d="M65,40.14A7.46,7.46,0,0,0,60.48,42v0l-.1.11a2,2,0,0,0-1.89-1.57H57.25V54.87h3.23V44.37a7.59,7.59,0,0,1,3.44-1.24c1.81,0,2.18.95,2.18,3v8.72h3.2V45.76C69.3,42.82,69,40.14,65,40.14Z"/><path class="cls-2" d="M109.85,40.14A7.52,7.52,0,0,0,105.38,42v0l-.09.11a2,2,0,0,0-1.9-1.57h-1.23V54.87h3.22V44.37a7.63,7.63,0,0,1,3.45-1.24c1.81,0,2.17.95,2.17,3v8.72h3.2V45.76C114.2,42.82,113.93,40.14,109.85,40.14Z"/><path class="cls-2" d="M119.77,67a5.82,5.82,0,0,1-2.36.47c-2.56,0-3.65-1.31-3.65-4.27s1.14-4.3,3.68-4.3a5.92,5.92,0,0,1,2.15.41l-.13,1a4.83,4.83,0,0,0-2-.39c-1.8,0-2.57.75-2.57,3.25s.68,3.22,2.45,3.22a3.91,3.91,0,0,0,1.4-.23V63h1Z"/><path class="cls-2" d="M125.3,63.65l2.12,3.7H126.1l-1.82-3.49h-1.63v3.49h-1.1V59.08h2.74c1.77,0,2.6.76,2.6,2.36C126.89,62.7,126.33,63.48,125.3,63.65Zm-1-3.59h-1.64V63h1.6c1,0,1.5-.4,1.5-1.49S125.3,60.06,124.29,60.06Z"/><path class="cls-2" d="M131.61,67.5c-2.4,0-3.36-1.27-3.36-4.29S129.2,59,131.61,59,135,60.19,135,63.21,134,67.5,131.61,67.5Zm0-7.51c-1.59,0-2.19.69-2.19,3.22s.6,3.23,2.19,3.23,2.19-.7,2.19-3.23S133.21,60,131.61,60Z"/><path class="cls-2" d="M142.71,64.37c0,2.17-1.1,3.13-3.08,3.13s-3.09-1-3.09-3.13V59.08h1.1v5.28c0,1.44.65,2.07,2,2.07s2-.64,2-2.07V59.08h1.1Z"/><path class="cls-2" d="M147.39,64.25h-1.58v3.1H144.7V59.08h2.69c2,0,2.83.79,2.83,2.59S149.4,64.25,147.39,64.25Zm0-4.19h-1.58V63.3h1.58c1.15,0,1.7-.36,1.7-1.63S148.57,60.06,147.39,60.06Z"/></g></svg>