<svg id="Layer_1" data-name="Layer 1" xmlns="http://www.w3.org/2000/svg" viewBox="0 0 200 100"><defs><style>.cls-1{opacity:0.25;}.cls-2{fill:#58595b;}</style></defs><g class="cls-1"><path class="cls-2" d="M66.86,44.61c-.38,2.49-2.28,2.49-4.13,2.49h-1l.73-4.66A.58.58,0,0,1,63,42h.48c1.26,0,2.44,0,3,.71A2.3,2.3,0,0,1,66.86,44.61Zm-.8-6.51h-7a1,1,0,0,0-1,.82L55.35,56.73a.57.57,0,0,0,.57.67h3.32a1,1,0,0,0,.95-.82l.76-4.8A1,1,0,0,1,61.9,51h2.2c4.58,0,7.22-2.21,7.91-6.6a5.37,5.37,0,0,0-.89-4.49C70.14,38.71,68.38,38.1,66.06,38.1Z"/><path class="cls-2" d="M82.19,51a3.71,3.71,0,0,1-3.75,3.18,2.58,2.58,0,0,1-2.76-3.24,3.72,3.72,0,0,1,3.73-3.2,2.83,2.83,0,0,1,2.22.91A2.92,2.92,0,0,1,82.19,51Zm4.64-6.47H83.5a.57.57,0,0,0-.57.49l-.15.93-.23-.34c-.72-1-2.33-1.4-3.93-1.4a7.65,7.65,0,0,0-7.43,6.69A6.24,6.24,0,0,0,72.43,56a5.18,5.18,0,0,0,4.19,1.7,6.35,6.35,0,0,0,4.6-1.91l-.14.93a.57.57,0,0,0,.57.67h3a1,1,0,0,0,1-.82L87.4,45.2A.58.58,0,0,0,86.83,44.53Z"/><path class="cls-2" d="M104.54,44.53H101.2a1,1,0,0,0-.8.42l-4.61,6.79-2-6.52a1,1,0,0,0-.93-.69H89.62a.58.58,0,0,0-.55.76L92.76,56.1,89.3,61a.57.57,0,0,0,.47.91h3.34a1,1,0,0,0,.79-.41L105,45.44A.58.58,0,0,0,104.54,44.53Z"/><path class="cls-2" d="M116.41,44.61c-.38,2.49-2.28,2.49-4.12,2.49h-1.05l.74-4.66a.56.56,0,0,1,.57-.48H113c1.25,0,2.44,0,3,.71A2.34,2.34,0,0,1,116.41,44.61Zm-.8-6.51h-7a1,1,0,0,0-1,.82L104.9,56.73a.58.58,0,0,0,.57.67H109a.67.67,0,0,0,.66-.57l.8-5a1,1,0,0,1,1-.82h2.2c4.58,0,7.22-2.21,7.91-6.6a5.37,5.37,0,0,0-.89-4.49C119.69,38.71,117.94,38.1,115.61,38.1Z"/><path class="cls-2" d="M131.74,51A3.71,3.71,0,0,1,128,54.18a2.81,2.81,0,0,1-2.24-.9,2.85,2.85,0,0,1-.52-2.34,3.72,3.72,0,0,1,3.73-3.2A2.64,2.64,0,0,1,131.74,51Zm4.64-6.47h-3.33a.57.57,0,0,0-.57.49l-.15.93-.23-.34c-.72-1-2.32-1.4-3.93-1.4a7.65,7.65,0,0,0-7.42,6.69A6.28,6.28,0,0,0,122,56a5.21,5.21,0,0,0,4.19,1.7,6.36,6.36,0,0,0,4.61-1.91l-.15.93a.58.58,0,0,0,.57.67h3a1,1,0,0,0,1-.82L137,45.2A.58.58,0,0,0,136.38,44.53Z"/><path class="cls-2" d="M140.3,38.59l-2.85,18.14a.57.57,0,0,0,.57.67h2.87a1,1,0,0,0,1-.82l2.81-17.81a.57.57,0,0,0-.57-.67h-3.21A.58.58,0,0,0,140.3,38.59Z"/></g></svg>