<svg id="Layer_1" data-name="Layer 1" xmlns="http://www.w3.org/2000/svg" viewBox="0 0 200 100"><defs><style>.cls-1{opacity:0.25;}.cls-2{fill:#58595b;}</style></defs><g class="cls-1"><path class="cls-2" d="M51.27,42.07c-.56,3.67-3.36,3.67-6.07,3.67H43.66l1.08-6.85a.85.85,0,0,1,.84-.72h.71c1.84,0,3.58,0,4.48,1A3.41,3.41,0,0,1,51.27,42.07ZM50.09,32.5H39.87a1.42,1.42,0,0,0-1.4,1.2L34.34,59.9a.85.85,0,0,0,.84,1h4.88a1.42,1.42,0,0,0,1.4-1.2l1.12-7.07a1.41,1.41,0,0,1,1.4-1.2h3.23c6.73,0,10.61-3.25,11.63-9.71.46-2.82,0-5-1.3-6.59C56.08,33.4,53.51,32.5,50.09,32.5Z"/><path class="cls-2" d="M73.81,51.47a5.45,5.45,0,0,1-5.52,4.67,3.78,3.78,0,0,1-4.05-4.75,5.47,5.47,0,0,1,5.48-4.71A4.12,4.12,0,0,1,73,48,4.23,4.23,0,0,1,73.81,51.47ZM80.63,42h-4.9a.87.87,0,0,0-.84.72L74.68,44l-.35-.5c-1-1.53-3.42-2-5.77-2a11.26,11.26,0,0,0-10.93,9.84,9.24,9.24,0,0,0,1.83,7.51,7.64,7.64,0,0,0,6.16,2.49,9.37,9.37,0,0,0,6.77-2.8l-.22,1.36a.86.86,0,0,0,.84,1h4.41a1.42,1.42,0,0,0,1.4-1.2l2.64-16.75A.84.84,0,0,0,80.63,42Z"/><path class="cls-2" d="M106.68,42h-4.91a1.43,1.43,0,0,0-1.18.62l-6.78,10L90.94,43a1.44,1.44,0,0,0-1.37-1H84.74a.86.86,0,0,0-.81,1.13L89.35,59l-5.09,7.19A.85.85,0,0,0,85,67.5h4.91A1.42,1.42,0,0,0,91,66.89l16.35-23.6A.85.85,0,0,0,106.68,42Z"/><path class="cls-2" d="M124.14,42.07c-.56,3.67-3.36,3.67-6.07,3.67h-1.54l1.08-6.85a.86.86,0,0,1,.84-.72h.71c1.84,0,3.58,0,4.48,1A3.41,3.41,0,0,1,124.14,42.07ZM123,32.5H112.74a1.42,1.42,0,0,0-1.4,1.2l-4.13,26.2a.85.85,0,0,0,.84,1h5.24a1,1,0,0,0,1-.84l1.17-7.43a1.43,1.43,0,0,1,1.4-1.2h3.24c6.73,0,10.61-3.25,11.63-9.71.45-2.82,0-5-1.31-6.59C129,33.4,126.38,32.5,123,32.5Z"/><path class="cls-2" d="M146.68,51.47a5.45,5.45,0,0,1-5.52,4.67,4.12,4.12,0,0,1-3.29-1.32,4.18,4.18,0,0,1-.77-3.43,5.49,5.49,0,0,1,5.49-4.71A4.14,4.14,0,0,1,145.85,48,4.23,4.23,0,0,1,146.68,51.47ZM153.49,42h-4.88a.85.85,0,0,0-.84.72L147.55,44l-.34-.5c-1.06-1.53-3.42-2-5.78-2a11.25,11.25,0,0,0-10.92,9.84,9.2,9.2,0,0,0,1.82,7.51,7.64,7.64,0,0,0,6.16,2.49,9.35,9.35,0,0,0,6.77-2.8L145,59.89a.86.86,0,0,0,.85,1h4.4a1.42,1.42,0,0,0,1.4-1.2l2.65-16.75A.85.85,0,0,0,153.49,42Z"/><path class="cls-2" d="M159.26,33.22,155.07,59.9a.85.85,0,0,0,.84,1h4.21a1.43,1.43,0,0,0,1.41-1.2l4.13-26.2a.85.85,0,0,0-.84-1H160.1A.87.87,0,0,0,159.26,33.22Z"/></g></svg>