<?xml version="1.0" encoding="utf-8"?>
<!-- Generator: Adobe Illustrator 24.1.2, SVG Export Plug-In . SVG Version: 6.00 Build 0)  -->
<svg version="1.1" id="Layer_1" xmlns="http://www.w3.org/2000/svg" xmlns:xlink="http://www.w3.org/1999/xlink" x="0px" y="0px"
	 viewBox="0 0 350 131" style="enable-background:new 0 0 350 131;" xml:space="preserve">
<style type="text/css">
	.st0{opacity:0.25;}
	.st1{fill:#58595B;}
</style>
<g class="st0">
	<g>
		<g>
			<g id="XMLID_27_">
				<g>
					<path class="st1" d="M30,31.4c1.8-1.6,1.7-7-0.3-5.6c-2.8,2-5.7,4.2-7.6,5.3c-2.9,1.7-6.2,3.2-8.7,4c-0.7,0.2-0.8,0.2-0.8,0.4
						c0,0.1,0.2,0.1,0.8,0.1c4.1-0.2,9-1,13.2-2.4C28.4,32.5,29,32.2,30,31.4z"/>
				</g>
				<g>
				</g>
			</g>
		</g>
		<g>
			<g id="XMLID_26_">
				<g>
					<path class="st1" d="M31,38.3c3.1-1.3,4.5-6.6,1.8-5.6c-3.7,1.4-8.7,2.6-11,3c-4,0.7-8.2,0.8-11,0.7c-0.4,0-0.7-0.1-0.8,0.1
						c0,0.1,0.2,0.3,0.7,0.5c3.4,1.6,9,2.6,15.1,2.3C28.6,39.1,29.9,38.7,31,38.3z"/>
				</g>
				<g>
				</g>
			</g>
		</g>
		<g>
			<g id="XMLID_7_">
				<g>
					<path class="st1" d="M26.3,25.6c1.3-2.6-1-6.6-1.9-5c-1.3,2.4-3.7,5.7-4.6,7c-1.5,2-3.1,3.9-4.5,5.4c-0.4,0.4-0.6,0.6-0.5,0.6
						c0.1,0.1,0.3,0,0.6-0.2c3-1.4,6.2-3.2,8.7-5.2C25.6,26.9,25.9,26.5,26.3,25.6z"/>
				</g>
				<g>
				</g>
			</g>
		</g>
	</g>
	<path class="st1" d="M107.1,35.5c-0.8,0.8-1.6,1.4-2.5,1.8c-0.8,0.4-1.8,0.6-3,0.6c-0.9,0-1.8-0.2-2.6-0.5
		c-0.8-0.4-1.5-0.9-2.1-1.5c-0.4-0.4-0.8-1-1.1-1.5c-0.1-0.2-0.2-0.4-0.3-0.6c-0.4-0.9-0.5-1.9-0.5-2.9v0c0-1,0.2-2,0.5-2.9
		c0.1-0.2,0.2-0.4,0.3-0.6c0.3-0.6,0.6-1.1,1-1.5c0.6-0.6,1.3-1.1,2.1-1.5c0.8-0.4,1.7-0.5,2.6-0.5c0.6,0,1.1,0.1,1.6,0.2
		c0.5,0.1,1,0.3,1.4,0.5c0.4,0.2,0.8,0.4,1.2,0.7c0.4,0.3,0.8,0.6,1.1,0.9l0.2,0.2l1.3-1.4l-0.2-0.2c-0.4-0.4-0.9-0.8-1.3-1.1
		c-0.5-0.3-1-0.6-1.5-0.9c-0.5-0.2-1.1-0.4-1.7-0.6c-0.6-0.1-1.3-0.2-2.1-0.2c-1.2,0-2.4,0.2-3.4,0.7c-1,0.5-1.9,1.1-2.7,1.9
		c-0.8,0.8-1.4,1.8-1.8,2.8c-0.4,1.1-0.6,2.2-0.6,3.4v0c0,1.2,0.2,2.4,0.6,3.4c0.4,1.1,1,2,1.8,2.8c0.8,0.8,1.7,1.4,2.7,1.9
		c1,0.5,2.2,0.7,3.4,0.7c0.7,0,1.4-0.1,2.1-0.2c0.6-0.1,1.2-0.4,1.8-0.6c0.5-0.3,1.1-0.6,1.5-0.9c0.5-0.4,0.9-0.8,1.4-1.2l0.2-0.2
		l-1.3-1.3L107.1,35.5z M117.3,26.6l-0.3,0c-0.6,0-1.2,0.1-1.8,0.2c-0.6,0.2-1.1,0.4-1.6,0.8c-0.5,0.3-0.9,0.8-1.3,1.2
		c-0.1,0.1-0.2,0.3-0.3,0.4v-2.5h-1.8v12.7h1.8v-5.2c0-0.9,0.1-1.8,0.4-2.5c0.3-0.7,0.6-1.3,1.1-1.8c0.4-0.5,1-0.8,1.5-1.1
		c0.6-0.2,1.2-0.4,1.9-0.4h0.4V26.6z M127.6,28.4c-0.5-0.6-1.1-1.1-1.8-1.4c-0.7-0.3-1.5-0.5-2.4-0.5c-0.9,0-1.7,0.2-2.4,0.5
		c-0.7,0.3-1.4,0.8-1.9,1.4c-0.5,0.6-1,1.3-1.3,2.1c-0.3,0.8-0.5,1.7-0.5,2.6v0c0,1,0.2,1.9,0.5,2.7c0.3,0.8,0.8,1.5,1.4,2.1
		c0.6,0.6,1.2,1,2,1.3c0.8,0.3,1.6,0.5,2.4,0.5c1.2,0,2.2-0.2,3-0.7c0.8-0.4,1.5-1,2.2-1.7l0.2-0.2l-1.3-1.1l-0.2,0.2
		c-0.5,0.5-1,0.9-1.7,1.3c-0.6,0.3-1.4,0.5-2.2,0.5c-0.6,0-1.1-0.1-1.6-0.3c-0.5-0.2-1-0.5-1.3-0.9c-0.4-0.4-0.7-0.8-1-1.4
		c-0.2-0.4-0.4-1-0.4-1.5h9.9l0-0.3c0-0.1,0-0.2,0-0.3v-0.2c0-0.9-0.1-1.8-0.4-2.6C128.5,29.7,128.1,29,127.6,28.4z M119.2,32.2
		c0.1-0.5,0.2-1,0.4-1.4c0.2-0.5,0.5-1,0.9-1.4c0.4-0.4,0.8-0.7,1.3-0.9c0.5-0.2,1-0.3,1.5-0.3c0.6,0,1.2,0.1,1.7,0.4
		c0.5,0.2,0.9,0.6,1.2,1c0.3,0.4,0.6,0.9,0.8,1.4c0.1,0.4,0.3,0.9,0.3,1.3H119.2z M141.1,28.7c-0.1-0.1-0.2-0.2-0.3-0.3
		c-0.3-0.4-0.7-0.7-1.1-1c-0.4-0.3-0.9-0.5-1.4-0.7c-0.5-0.2-1.1-0.3-1.7-0.3c-0.8,0-1.5,0.2-2.3,0.5c-0.7,0.3-1.4,0.7-2,1.3
		c-0.6,0.6-1,1.3-1.4,2.1c-0.4,0.8-0.5,1.7-0.5,2.8v0c0,1,0.2,1.9,0.5,2.8c0.4,0.8,0.8,1.5,1.4,2.1c0.6,0.6,1.2,1,2,1.3
		c0.7,0.3,1.5,0.4,2.3,0.4c0.6,0,1.2-0.1,1.7-0.3c0.5-0.2,1-0.4,1.4-0.7c0.4-0.3,0.8-0.6,1.1-1c0.1-0.1,0.2-0.2,0.3-0.4v2h1.8V21.6
		h-1.8V28.7z M141.2,33.1c0,0.7-0.1,1.4-0.4,2c-0.3,0.6-0.6,1.1-1,1.5c-0.4,0.4-0.9,0.8-1.5,1c-1.1,0.5-2.3,0.5-3.4,0
		c-0.5-0.2-1-0.5-1.4-1c-0.4-0.4-0.7-0.9-1-1.5c-0.2-0.6-0.4-1.3-0.4-2v0c0-0.8,0.1-1.4,0.3-2c0.2-0.6,0.5-1.1,0.9-1.5
		c0.4-0.4,0.9-0.7,1.4-0.9c0.5-0.2,1.1-0.3,1.7-0.3c0.6,0,1.2,0.1,1.7,0.4c0.5,0.2,1,0.6,1.5,1c0.4,0.4,0.8,0.9,1,1.5
		C141,31.7,141.2,32.4,141.2,33.1L141.2,33.1z M145.7,39.4h1.8V26.8h-1.8V39.4z M145.5,24.3h2.1v-2.2h-2.1V24.3z M157.3,28.5v-1.7
		h-4.2v-3.8h-1.8v3.8h-1.7v1.7h1.7V36c0,0.6,0.1,1.1,0.3,1.6c0.2,0.5,0.5,0.8,0.8,1.2c0.3,0.3,0.7,0.5,1.2,0.7
		c0.4,0.1,0.9,0.2,1.4,0.2c0.4,0,0.8,0,1.1-0.1c0.3-0.1,0.7-0.2,1-0.3l0.2-0.1v-1.8l-0.5,0.2c-0.3,0.1-0.6,0.2-0.9,0.3
		c-0.2,0.1-0.5,0.1-0.8,0.1c-0.6,0-1.1-0.2-1.5-0.4c-0.4-0.3-0.5-0.8-0.5-1.5v-7.4H157.3z"/>
	<g>
		<path class="st1" d="M47.2,39.8c-5.2,0-9.1-4-9.1-9.1v-0.1c0-5.1,3.8-9.2,9.3-9.2c3.4,0,5.4,1.1,7,2.7l-2.5,2.9
			c-1.4-1.2-2.8-2-4.5-2c-3,0-5.2,2.5-5.2,5.5v0.1c0,3,2.1,5.6,5.2,5.6c2,0,3.3-0.8,4.7-2.1l2.5,2.5C52.7,38.6,50.7,39.8,47.2,39.8z
			"/>
		<path class="st1" d="M63.9,39.5V38c-0.9,1-2.2,1.7-4.1,1.7c-2.6,0-4.7-1.5-4.7-4.2v-0.1c0-3,2.3-4.3,5.5-4.3
			c1.4,0,2.4,0.2,3.3,0.6v-0.2c0-1.6-1-2.5-2.9-2.5c-1.5,0-2.5,0.3-3.8,0.7l-1-2.9c1.5-0.7,3-1.1,5.3-1.1c4.2,0,6.1,2.2,6.1,5.9v7.9
			H63.9z M64,34c-0.7-0.3-1.5-0.5-2.5-0.5c-1.7,0-2.7,0.7-2.7,1.9v0.1c0,1,0.9,1.7,2.1,1.7c1.8,0,3-1,3-2.4V34z"/>
		<path class="st1" d="M77.2,29.7c-2.6,0-4.1,1.5-4.1,4.8v5h-3.9V25.9H73v2.7c0.8-1.9,2.1-3.1,4.3-3v4H77.2z"/>
		<path class="st1" d="M91,34.1h-9.5c0.4,1.8,1.6,2.7,3.3,2.7c1.3,0,2.2-0.4,3.3-1.4l2.2,2c-1.3,1.6-3.1,2.5-5.6,2.5
			c-4.1,0-7.1-2.9-7.1-7v-0.1c0-3.9,2.8-7.1,6.7-7.1c4.5,0,6.6,3.5,6.6,7.4v0.1C91,33.5,91,33.7,91,34.1z M84.4,28.8
			c-1.6,0-2.6,1.1-2.9,2.9h5.8C87,29.9,86,28.8,84.4,28.8z"/>
	</g>
	<g>
		<path class="st1" d="M160,23.2c0,0.9-0.7,1.6-1.6,1.6c-0.9,0-1.6-0.7-1.6-1.6c0-0.9,0.7-1.5,1.6-1.5C159.3,21.6,160,22.3,160,23.2
			z M157.2,23.2c0,0.7,0.5,1.3,1.3,1.3c0.7,0,1.2-0.6,1.2-1.3c0-0.7-0.5-1.3-1.2-1.3C157.7,21.9,157.2,22.5,157.2,23.2z M158.2,24
			h-0.3v-1.6c0.2,0,0.3,0,0.6,0c0.3,0,0.4,0,0.5,0.1c0.1,0.1,0.2,0.2,0.2,0.3c0,0.2-0.1,0.3-0.3,0.4v0c0.1,0.1,0.2,0.2,0.3,0.4
			c0,0.2,0.1,0.3,0.1,0.4h-0.3c0-0.1-0.1-0.2-0.1-0.4c0-0.2-0.1-0.3-0.4-0.3h-0.2V24z M158.2,23.1h0.2c0.2,0,0.4-0.1,0.4-0.3
			c0-0.2-0.1-0.3-0.4-0.3c-0.1,0-0.2,0-0.2,0V23.1z"/>
	</g>
</g>
<g class="st0">
	<path class="st1" d="M228.9,46.2c-4.2,0-7.1-3.2-7.1-7c0-3.8,2.9-7,7.1-7c4.2,0,7.1,3.2,7.1,7C236,43,233,46.2,228.9,46.2
		 M228.9,34.4c-2.7,0-4.6,2.1-4.6,4.8c0,2.6,1.9,4.8,4.6,4.8c2.7,0,4.6-2.1,4.6-4.8S231.5,34.4,228.9,34.4"/>
	<path class="st1" d="M243.2,41.6h-2.7V46h-2.4V32.5h5.3c3.2,0,5.1,1.8,5.1,4.5C248.6,40.1,246.2,41.6,243.2,41.6 M243.3,34.6h-2.8
		v4.9h2.8c1.8,0,2.9-1,2.9-2.4C246.2,35.5,245.1,34.6,243.3,34.6"/>
	<polygon class="st1" points="256.4,46 254,46 254,34.7 249.7,34.7 249.7,32.5 260.7,32.5 260.7,34.7 256.4,34.7 	"/>
	<path class="st1" d="M274.4,40.1c0,4-2.3,6.1-5.8,6.1c-3.5,0-5.8-2-5.8-6v-7.8h2.4v7.7c0,2.5,1.3,3.9,3.4,3.9
		c2.1,0,3.4-1.3,3.4-3.8v-7.8h2.4V40.1z"/>
	<polygon class="st1" points="283.6,42.7 283.5,42.7 279.3,36.3 279.3,46 277,46 277,32.5 279.5,32.5 283.6,38.9 287.7,32.5 
		290.3,32.5 290.3,46 287.9,46 287.9,36.3 	"/>
	<path class="st1" d="M297,38.4h0.3c1.8,0,4.6-0.2,4.6-2.7c0-1.5-1.6-2.2-3.1-2.2c-1.1,0-2.1,0.3-3,0.7l-0.1-1.2
		c1-0.4,2.1-0.6,3.2-0.6c2.2,0,4.3,0.9,4.3,3.3c0,1.6-1.2,2.8-2.8,3.2v0c1.8,0.1,2.8,1.5,2.8,3.2c0,2.4-2.2,3.9-4.8,3.9
		c-1.2,0-2.2-0.1-3.3-0.5l0.2-1.3c1.1,0.5,2.3,0.7,3.2,0.7c1.6,0,3.4-0.8,3.4-2.8c0-2.3-2.2-2.5-3.7-2.5H297V38.4z"/>
	<path class="st1" d="M305.1,39.7c0-4.1,1.5-7.3,6-7.3c0.7,0,1.4,0.1,2.2,0.3l-0.1,1.3c-0.6-0.2-1.4-0.4-2.2-0.4
		c-3.5-0.1-4.6,2.8-4.6,5.6h0c0.7-1.1,1.9-1.7,3.2-1.7c1.8,0,4.2,0.9,4.2,4.2c0,2.6-1.6,4.4-4.4,4.4
		C305.8,46.1,305.1,42.9,305.1,39.7 M306.5,41.6c0,1.7,0.9,3.3,2.9,3.3c2,0,3-1.4,3-3.2c0-2-1-3.1-2.8-3.1
		C307.7,38.6,306.5,39.9,306.5,41.6"/>
	<path class="st1" d="M331.5,32.3c1.8,0,3,1.3,3,3.1c0,1.7-1.2,3.1-3,3.1c-1.8,0-3-1.4-3-3.1C328.5,33.6,329.7,32.3,331.5,32.3
		 M331.5,37.6c1.3,0,1.8-1.2,1.8-2.2c0-1.1-0.7-2.2-1.8-2.2c-1.2,0-1.8,1.1-1.8,2.2C329.6,36.5,330.2,37.6,331.5,37.6"/>
	<path class="st1" d="M326.1,33c0,0,0.1,0.1,0.1,0.1l-0.2-4.1l-1.5,2.8C325.1,32.1,325.6,32.5,326.1,33"/>
	<path class="st1" d="M324.5,31.8l1.5-2.8l-3.5,2.1C323.2,31.3,323.8,31.5,324.5,31.8"/>
	<path class="st1" d="M321.1,32.3c4,0,5.9,3.3,5.9,6.9c0,4.1-2,6.9-5.9,6.9c-3.9,0-5.9-2.8-5.9-6.9
		C315.2,35.6,317.1,32.3,321.1,32.3 M316.6,39.3c0,2.8,1.4,5.8,4.6,5.8c3.2,0,4.6-2.9,4.6-5.8c0-2.8-1.4-5.8-4.6-5.8
		C318,33.5,316.6,36.4,316.6,39.3"/>
	<path class="st1" d="M335.9,34.3L335.9,34.3c0-1.1,0.9-2.1,2-2.1c1.1,0,2,0.9,2,2v0c0,1.1-0.9,2-2,2
		C336.8,36.3,335.9,35.4,335.9,34.3 M339.8,34.3L339.8,34.3c0-1-0.8-1.8-1.8-1.8c-1,0-1.8,0.8-1.8,1.8v0c0,1,0.8,1.8,1.8,1.8
		C339,36.1,339.8,35.3,339.8,34.3 M337.2,33.2h0.9c0.4,0,0.8,0.2,0.8,0.6c0,0.3-0.2,0.5-0.5,0.6l0.6,0.8h-0.4l-0.5-0.7h-0.5v0.7
		h-0.3V33.2z M338.1,34.3c0.3,0,0.5-0.2,0.5-0.4c0-0.2-0.2-0.4-0.5-0.4h-0.5v0.7H338.1z"/>
	<path class="st1" d="M210.6,34.5c-0.5,1.9-1,3.9-1.5,6c2.2,1.4,4.3,2.8,6.4,4C213.9,41.4,212.2,38,210.6,34.5"/>
	<path class="st1" d="M210.6,34.5c1.9,1.4,3.8,2.8,5.7,4.1c-0.3,1.9-0.5,3.8-0.8,5.9C213.9,41.4,212.2,38,210.6,34.5"/>
	<path class="st1" d="M210.6,34.5c-0.5,1.9-1,3.9-1.5,6c-2.2-1.4-4.4-2.8-6.6-4.1C205.2,35.6,207.9,34.9,210.6,34.5"/>
	<path class="st1" d="M210.6,34.5c-1.9-1.4-3.9-2.7-5.9-4c-0.7,1.9-1.5,3.9-2.1,5.9C205.2,35.6,207.9,34.9,210.6,34.5"/>
	<path class="st1" d="M212.8,26.6c-0.3,1.1-0.7,2.3-1,3.4c1.7,1.4,3.4,2.8,5.1,4.2C215.5,31.8,214.2,29.2,212.8,26.6"/>
	<path class="st1" d="M212.8,26.6c1.6,1.4,3.1,2.9,4.5,4.3c-0.1,1.1-0.3,2.2-0.5,3.3C215.5,31.8,214.2,29.2,212.8,26.6"/>
	<path class="st1" d="M210.6,34.5c0.4-1.5,0.8-3,1.2-4.5c1.7,1.4,3.4,2.8,5.1,4.2C214.8,34.1,212.7,34.2,210.6,34.5"/>
	<path class="st1" d="M210.6,34.5c1.9,1.4,3.8,2.8,5.7,4.1c0.2-1.5,0.4-3,0.6-4.4C214.8,34.1,212.7,34.2,210.6,34.5"/>
	<path class="st1" d="M212.8,26.6c0.3-0.9,0.5-1.8,0.8-2.7c1.4,1.4,2.8,2.9,4.1,4.3C216.1,27.5,214.5,27,212.8,26.6"/>
	<path class="st1" d="M212.8,26.6c1.6,1.4,3.1,2.9,4.5,4.3c0.1-0.9,0.2-1.8,0.4-2.6C216.1,27.5,214.5,27,212.8,26.6"/>
	<path class="st1" d="M212.8,26.6c0.3-0.9,0.5-1.8,0.8-2.7c-1.4-1.4-2.9-2.8-4.4-4.1C210.4,22.1,211.6,24.4,212.8,26.6"/>
	<path class="st1" d="M212.8,26.6c-1.6-1.4-3.2-2.8-4.8-4c0.4-0.9,0.8-1.8,1.3-2.7C210.4,22.1,211.6,24.4,212.8,26.6"/>
	<path class="st1" d="M198.7,27.4c-0.9,2-1.8,3.9-2.7,5.9c2.1,0.8,4.4,1.9,6.6,3.2C201.2,33.3,200,30.3,198.7,27.4"/>
	<path class="st1" d="M198.7,27.4c2,0.8,4,1.9,6,3.1c-0.7,1.9-1.5,3.9-2.1,5.9C201.2,33.3,200,30.3,198.7,27.4"/>
	<path class="st1" d="M198.7,27.4c-0.9,2-1.8,3.9-2.7,5.9c-2.1-0.8-4.2-1.3-5.9-1.3C192.5,30,195.5,28.4,198.7,27.4"/>
	<path class="st1" d="M198.7,27.4c-2-0.8-3.9-1.4-5.7-1.6c-1,2.1-2,4.2-3,6.2C192.5,30,195.5,28.4,198.7,27.4"/>
	<path class="st1" d="M202.9,19.2c-0.7,1.2-1.3,2.4-2,3.6c-1.8-0.9-3.6-1.6-5.3-2C197.9,19.8,200.4,19.3,202.9,19.2"/>
	<path class="st1" d="M202.9,19.2c-1.7-1-3.4-1.8-5-2.3c-0.8,1.3-1.6,2.6-2.3,3.9C197.9,19.8,200.4,19.3,202.9,19.2"/>
	<path class="st1" d="M198.7,27.4c0.7-1.6,1.5-3.1,2.3-4.6c-1.8-0.9-3.6-1.6-5.3-2C196.6,22.9,197.7,25.1,198.7,27.4"/>
	<path class="st1" d="M198.7,27.4c-2-0.8-3.9-1.4-5.7-1.6c0.8-1.7,1.7-3.4,2.6-5C196.6,22.9,197.7,25.1,198.7,27.4"/>
	<path class="st1" d="M202.9,19.2c0.6-1,1.1-1.9,1.7-2.8c1.6,1,3.1,2.2,4.6,3.5C207.2,19.3,205,19.1,202.9,19.2"/>
	<path class="st1" d="M202.9,19.2c1.7,1,3.4,2.1,5,3.4c0.4-0.9,0.8-1.8,1.3-2.7C207.2,19.3,205,19.1,202.9,19.2"/>
	<path class="st1" d="M202.9,19.2c0.6-1,1.1-1.9,1.7-2.8c-1.6-1-3.1-1.9-4.7-2.6C201,15.5,202,17.3,202.9,19.2"/>
	<path class="st1" d="M202.9,19.2c-1.7-1-3.4-1.8-5-2.3c0.7-1.1,1.3-2.1,2-3.1C201,15.5,202,17.3,202.9,19.2"/>
</g>
<g class="st0">
	<polygon class="st1" points="103,90.3 98.5,90.3 97.9,93 102.4,93 	"/>
	<g>
		<path class="st1" d="M109.6,96.8c1.7,0,2.5,0.6,2.6,1.6h4.7c0.2-3.4-2.6-4.6-6.7-4.6c-4.3,0-7.5,1.5-8.9,4.7l0.9-4.2h-4.5
			l-0.8,3.9c-0.2-2.7-2.2-4.2-5.6-4.2c-1.8,0-3.6,0.7-4.8,1.8h0l0.3-1.5h-4.4l-1.7,8.2h-10l0.5-2.6h8.9l0.7-3.1h-8.9l0.5-2.5h10.1
			l0.7-3.3H68l-3,14.8h15l-0.9,4.2h4.5l1.1-5.2h0c0.6,0.8,2,1.5,4,1.5c3.4,0,6-1.8,7.3-4.2l-0.8,3.7h4.5l0.9-4.1
			c0,3.1,2.5,4.6,6.9,4.6c5,0,7.6-1.8,9-5h-4.7c-0.6,1.3-1.9,2-3.5,2c-2.2,0-3.1-1.2-2.7-3.2C105.9,98,107.5,96.8,109.6,96.8
			 M92.1,100.1c-0.4,1.9-1.7,2.9-3.8,2.9c-2.1,0-3-1.1-2.6-2.9s1.7-2.9,3.8-2.9C91.6,97.2,92.5,98.2,92.1,100.1"/>
	</g>
</g>
<g id="XMLID_12_" class="st0">
	<g id="XMLID_13_">
		<g id="XMLID_14_">
			<g id="XMLID_15_">
				<path id="XMLID_57_" class="st1" d="M237.2,95.6c-0.3,2.1-1.9,2.1-3.5,2.1h-0.9l0.6-3.9c0-0.2,0.2-0.4,0.5-0.4h0.4
					c1.1,0,2,0,2.6,0.6C237.2,94.3,237.3,94.9,237.2,95.6z M236.5,90.1h-5.8c-0.4,0-0.7,0.3-0.8,0.7l-2.4,15c0,0.3,0.2,0.6,0.5,0.6
					h2.8c0.4,0,0.7-0.3,0.8-0.7l0.6-4c0.1-0.4,0.4-0.7,0.8-0.7h1.8c3.8,0,6.1-1.9,6.6-5.5c0.3-1.6,0-2.9-0.7-3.8
					C239.9,90.7,238.4,90.1,236.5,90.1z"/>
				<path id="XMLID_54_" class="st1" d="M250,101c-0.3,1.6-1.5,2.7-3.2,2.7c-0.8,0-1.5-0.3-1.9-0.8c-0.4-0.5-0.6-1.2-0.4-2
					c0.3-1.6,1.5-2.7,3.1-2.7c0.8,0,1.4,0.3,1.9,0.8C250,99.5,250.2,100.2,250,101z M253.9,95.5h-2.8c-0.2,0-0.4,0.2-0.5,0.4
					l-0.1,0.8l-0.2-0.3c-0.6-0.9-2-1.2-3.3-1.2c-3.1,0-5.7,2.3-6.2,5.6c-0.3,1.6,0.1,3.2,1,4.3c0.9,1,2.1,1.4,3.5,1.4
					c2.5,0,3.9-1.6,3.9-1.6l-0.1,0.8c0,0.3,0.2,0.6,0.5,0.6h2.5c0.4,0,0.7-0.3,0.8-0.7l1.5-9.6C254.5,95.8,254.2,95.5,253.9,95.5z"
					/>
				<path id="XMLID_33_" class="st1" d="M268.8,95.5H266c-0.3,0-0.5,0.1-0.7,0.4l-3.9,5.7l-1.6-5.5c-0.1-0.3-0.4-0.6-0.8-0.6h-2.8
					c-0.3,0-0.6,0.3-0.5,0.6l3.1,9.1l-2.9,4.1c-0.2,0.3,0,0.8,0.4,0.8h2.8c0.3,0,0.5-0.1,0.7-0.3l9.3-13.5
					C269.4,96,269.2,95.5,268.8,95.5z"/>
				<path id="XMLID_38_" class="st1" d="M278.8,95.6c-0.3,2.1-1.9,2.1-3.5,2.1h-0.9l0.6-3.9c0-0.2,0.2-0.4,0.5-0.4h0.4
					c1.1,0,2,0,2.6,0.6C278.8,94.3,278.9,94.9,278.8,95.6z M278.1,90.1h-5.8c-0.4,0-0.7,0.3-0.8,0.7l-2.4,15c0,0.3,0.2,0.6,0.5,0.6
					h3c0.3,0,0.5-0.2,0.6-0.5l0.7-4.2c0.1-0.4,0.4-0.7,0.8-0.7h1.8c3.8,0,6.1-1.9,6.6-5.5c0.3-1.6,0-2.9-0.7-3.8
					C281.5,90.7,280.1,90.1,278.1,90.1z"/>
				<path id="XMLID_21_" class="st1" d="M291.7,101c-0.3,1.6-1.5,2.7-3.2,2.7c-0.8,0-1.5-0.3-1.9-0.8c-0.4-0.5-0.6-1.2-0.4-2
					c0.3-1.6,1.5-2.7,3.1-2.7c0.8,0,1.4,0.3,1.9,0.8C291.6,99.5,291.8,100.2,291.7,101z M295.6,95.5h-2.8c-0.2,0-0.4,0.2-0.5,0.4
					l-0.1,0.8l-0.2-0.3c-0.6-0.9-2-1.2-3.3-1.2c-3.1,0-5.7,2.3-6.2,5.6c-0.3,1.6,0.1,3.2,1,4.3c0.9,1,2.1,1.4,3.5,1.4
					c2.5,0,3.9-1.6,3.9-1.6l-0.1,0.8c0,0.3,0.2,0.6,0.5,0.6h2.5c0.4,0,0.7-0.3,0.8-0.7l1.5-9.6C296.1,95.8,295.9,95.5,295.6,95.5z"
					/>
				<path id="XMLID_28_" class="st1" d="M298.9,90.6l-2.4,15.2c0,0.3,0.2,0.6,0.5,0.6h2.4c0.4,0,0.7-0.3,0.8-0.7l2.4-15
					c0-0.3-0.2-0.6-0.5-0.6h-2.7C299.1,90.1,298.9,90.3,298.9,90.6z"/>
			</g>
		</g>
	</g>
</g>
</svg>
