<svg id="Layer_1" data-name="Layer 1" xmlns="http://www.w3.org/2000/svg" viewBox="0 0 200 100"><defs><style>.cls-1{opacity:0.25;}.cls-2{fill:#58595b;}</style></defs><g class="cls-1"><path class="cls-2" d="M35.82,51.61c2.15-1.86,2-8.16-.4-6.48-3.31,2.33-6.68,4.86-8.86,6.17A57.85,57.85,0,0,1,16.43,56c-.81.28-1,.29-.95.43s.25.17.95.12a59.41,59.41,0,0,0,15.34-2.82A10.23,10.23,0,0,0,35.82,51.61Z"/><path class="cls-2" d="M37,59.67c3.64-1.58,5.21-7.66,2.13-6.5A88.5,88.5,0,0,1,26.22,56.7a60.78,60.78,0,0,1-12.81.83c-.46,0-.85-.09-.9.08s.26.29.77.53c3.91,1.84,10.54,3,17.66,2.66A16,16,0,0,0,37,59.67Z"/><path class="cls-2" d="M31.56,44.83c1.5-3.06-1.21-7.72-2.19-5.88A84.17,84.17,0,0,1,24,47.08a58.32,58.32,0,0,1-5.3,6.25c-.43.42-.71.65-.64.75s.3,0,.75-.19a49.36,49.36,0,0,0,10.17-6.06A7.54,7.54,0,0,0,31.56,44.83Z"/><path class="cls-2" d="M125.76,56.39a11.57,11.57,0,0,1-2.89,2.16,7.74,7.74,0,0,1-3.46.72,7.22,7.22,0,0,1-3-.64,7.65,7.65,0,0,1-2.45-1.74,8.22,8.22,0,0,1-1.23-1.77,7.89,7.89,0,0,1-.33-.72,9,9,0,0,1-.63-3.39V51a9.19,9.19,0,0,1,.62-3.38c.1-.24.2-.48.32-.72a8.3,8.3,0,0,1,1.22-1.75,7.47,7.47,0,0,1,2.45-1.73,7.38,7.38,0,0,1,3.06-.63,8.13,8.13,0,0,1,1.9.21,8.57,8.57,0,0,1,1.62.56,8.38,8.38,0,0,1,1.41.85,16.53,16.53,0,0,1,1.28,1.1l.28.26,1.55-1.59-.29-.27a18.57,18.57,0,0,0-1.56-1.28,11.46,11.46,0,0,0-1.74-1,10.08,10.08,0,0,0-2-.66,12,12,0,0,0-2.42-.22,9.61,9.61,0,0,0-7.15,3A10.58,10.58,0,0,0,110.18,47a10.69,10.69,0,0,0-.76,4v.05a10.87,10.87,0,0,0,.74,4,10,10,0,0,0,2.07,3.27,9.76,9.76,0,0,0,7.13,3,10.88,10.88,0,0,0,2.42-.26,10.3,10.3,0,0,0,2.07-.71,10,10,0,0,0,1.79-1.1,18.94,18.94,0,0,0,1.62-1.39l.28-.27L126,56.13ZM137.68,46h-.37a6.94,6.94,0,0,0-2.11.28,6.43,6.43,0,0,0-1.86.91,7.23,7.23,0,0,0-1.5,1.43c-.13.16-.25.32-.37.49V46.23h-2.1V61h2.1V54.88a8.15,8.15,0,0,1,.47-2.87,6.34,6.34,0,0,1,1.26-2.07,5.07,5.07,0,0,1,1.8-1.26,5.65,5.65,0,0,1,2.16-.42h.52Zm12,2.13a6.41,6.41,0,0,0-2.14-1.65,6.52,6.52,0,0,0-2.83-.6,6.38,6.38,0,0,0-2.8.62,7.07,7.07,0,0,0-2.22,1.65,7.68,7.68,0,0,0-1.47,2.44,8.21,8.21,0,0,0-.54,3v0a8.32,8.32,0,0,0,.58,3.14,7.56,7.56,0,0,0,1.58,2.43,7.59,7.59,0,0,0,8.66,1.32,10.35,10.35,0,0,0,2.53-2l.27-.28-1.51-1.33-.25.27a8,8,0,0,1-1.93,1.49,5.33,5.33,0,0,1-2.61.58,5.07,5.07,0,0,1-1.86-.34,4.67,4.67,0,0,1-1.57-1,5.51,5.51,0,0,1-1.66-3.38H151.4l0-.32a1.52,1.52,0,0,0,0-.32v-.29a9.19,9.19,0,0,0-.48-3A7.31,7.31,0,0,0,149.65,48.15Zm-9.77,4.43a6.23,6.23,0,0,1,.45-1.63,6,6,0,0,1,1-1.62,4.5,4.5,0,0,1,1.46-1,4.33,4.33,0,0,1,1.8-.38,4.41,4.41,0,0,1,2,.41,4.25,4.25,0,0,1,1.4,1.11,5.32,5.32,0,0,1,.9,1.62,7.69,7.69,0,0,1,.36,1.54Zm25.57-4.08-.34-.39A7.64,7.64,0,0,0,163.78,47a6.47,6.47,0,0,0-1.68-.78,6.6,6.6,0,0,0-2-.3,6.73,6.73,0,0,0-2.63.54A7.14,7.14,0,0,0,155.13,48a7.69,7.69,0,0,0-1.63,2.42,8.07,8.07,0,0,0-.62,3.22v.05a8,8,0,0,0,.62,3.21,7.47,7.47,0,0,0,1.63,2.42,7.33,7.33,0,0,0,2.31,1.51,7.08,7.08,0,0,0,2.63.52,6.59,6.59,0,0,0,2-.31,6.82,6.82,0,0,0,1.65-.8,7.4,7.4,0,0,0,1.34-1.16l.36-.43V61h2.11V40.19h-2.11Zm.08,5.14a5.65,5.65,0,0,1-1.65,4.07,5.29,5.29,0,0,1-1.71,1.16,5.08,5.08,0,0,1-3.94,0,4.85,4.85,0,0,1-1.63-1.12A5.39,5.39,0,0,1,155.48,56a6.61,6.61,0,0,1-.41-2.36v-.06a6.51,6.51,0,0,1,.4-2.37,5.28,5.28,0,0,1,1.08-1.76,4.82,4.82,0,0,1,1.62-1.09,5.42,5.42,0,0,1,2-.38,4.85,4.85,0,0,1,2,.41,5.38,5.38,0,0,1,1.72,1.14,5.57,5.57,0,0,1,1.19,1.77,5.77,5.77,0,0,1,.45,2.31ZM170.8,61h2.1V46.23h-2.1Zm-.17-17.66h2.44v-2.6h-2.44Zm13.71,4.89v-2h-4.92V41.76h-2.11v4.47h-2v2h2V57a4.82,4.82,0,0,0,.34,1.86,3.62,3.62,0,0,0,.93,1.35A3.68,3.68,0,0,0,180,61a5.85,5.85,0,0,0,2.93.1,6.09,6.09,0,0,0,1.16-.39l.22-.1V58.53l-.53.23a6.58,6.58,0,0,1-1,.34,4.46,4.46,0,0,1-.91.09,2.83,2.83,0,0,1-1.78-.52,2.17,2.17,0,0,1-.64-1.81V48.23Z"/><path class="cls-2" d="M55.94,61.47A10.47,10.47,0,0,1,45.31,50.8v-.06A10.54,10.54,0,0,1,56.12,40a10.66,10.66,0,0,1,8.17,3.2l-2.9,3.35a7.63,7.63,0,0,0-5.3-2.35c-3.5,0-6,2.91-6,6.46v.06c0,3.56,2.45,6.52,6,6.52,2.37,0,3.82-.95,5.45-2.43l2.9,2.93A10.6,10.6,0,0,1,55.94,61.47Z"/><path class="cls-2" d="M75.37,61.11V59.39a6.06,6.06,0,0,1-4.79,2c-3,0-5.45-1.72-5.45-4.86v-.06c0-3.47,2.63-5.07,6.39-5.07a11.13,11.13,0,0,1,3.88.66v-.27c0-1.87-1.15-2.9-3.4-2.9a11.76,11.76,0,0,0-4.39.85l-1.12-3.43a14,14,0,0,1,6.16-1.28c4.92,0,7.08,2.55,7.08,6.85v9.21Zm.09-6.4a7,7,0,0,0-2.87-.59c-1.93,0-3.11.77-3.11,2.19v.06c0,1.21,1,1.93,2.46,1.93,2.1,0,3.52-1.16,3.52-2.79Z"/><path class="cls-2" d="M90.87,49.65c-3,0-4.83,1.8-4.83,5.6v5.86h-4.5V45.23H86v3.2c.92-2.19,2.4-3.61,5.07-3.49v4.71Z"/><path class="cls-2" d="M107,54.74h-11a3.68,3.68,0,0,0,3.88,3.11,5.2,5.2,0,0,0,3.86-1.63l2.57,2.28a8.38,8.38,0,0,1-14.78-5.24V53.2c0-4.53,3.23-8.26,7.85-8.26,5.3,0,7.73,4.11,7.73,8.62v.06C107,54.06,107,54.33,107,54.74Zm-7.67-6.19c-1.86,0-3.08,1.33-3.43,3.38h6.78C102.36,49.91,101.18,48.55,99.28,48.55Z"/><path class="cls-2" d="M187.5,42a1.79,1.79,0,0,1-1.82,1.82,1.81,1.81,0,1,1,0-3.62A1.78,1.78,0,0,1,187.5,42Zm-3.27,0a1.45,1.45,0,0,0,1.46,1.49,1.49,1.49,0,0,0,0-3A1.44,1.44,0,0,0,184.23,42Zm1.12,1H185V41.14a4.13,4.13,0,0,1,.66,0,.87.87,0,0,1,.58.14.48.48,0,0,1,.2.41.47.47,0,0,1-.37.44v0c.16.06.25.21.31.46a1.2,1.2,0,0,0,.15.46h-.37a1.39,1.39,0,0,1-.15-.48c0-.22-.17-.31-.43-.31h-.23Zm0-1.06h.24c.25,0,.48-.08.48-.29s-.12-.32-.45-.32l-.27,0Z"/></g></svg>