<svg id="Layer_1" data-name="Layer 1" xmlns="http://www.w3.org/2000/svg" xmlns:xlink="http://www.w3.org/1999/xlink" viewBox="0 0 200 100"><defs><style>.cls-1{fill:#58595b;}.cls-2{opacity:0.25;}.cls-3{clip-path:url(#clip-path);}.cls-4{clip-path:url(#clip-path-2);}.cls-5{clip-path:url(#clip-path-3);}</style><clipPath id="clip-path"><path class="cls-1" d="M49.83,52h0ZM35.6,49A11.3,11.3,0,0,0,34,51.18a10.6,10.6,0,0,0-1.05,2.51,10.76,10.76,0,0,0,5,12.19A11.1,11.1,0,0,0,40.56,67a1.49,1.49,0,0,0,.36,0A1.42,1.42,0,0,0,42.29,66c.13-.47.29-1.43.29-1.43h0a10.62,10.62,0,0,1-1.37-.29h0c-.26-.08-.5-.17-.74-.26l-.62-.28-.5-.28A7.91,7.91,0,0,1,35.37,56a9.06,9.06,0,0,1,.26-1.53c0-.05,0-.1,0-.14a7.79,7.79,0,0,1,.73-1.71,8.37,8.37,0,0,1,.53-.79h0a7.07,7.07,0,0,1,.67-.78,7.81,7.81,0,0,1,5.64-2.36,7.85,7.85,0,0,1,4,1.06l.48.3a7.66,7.66,0,0,1,1.18.93L49,51h0l.14.15c.32.33.64.71.74.83s.74-.61,1.08-1a1.42,1.42,0,0,0,0-2,10.52,10.52,0,0,0-2.28-1.76A10.77,10.77,0,0,0,35.6,49"/></clipPath><clipPath id="clip-path-2"><path class="cls-1" d="M15.19,47.24A10.77,10.77,0,0,0,12.91,49a1.42,1.42,0,0,0,0,2c.34.34,1.09,1,1.09,1s.55-.67.94-1a8.6,8.6,0,0,1,1.66-1.23,7.9,7.9,0,0,1,9.6,1.3,7.69,7.69,0,0,1,1.22,1.6,8.15,8.15,0,0,1,.78,1.85,7.91,7.91,0,0,1-3.68,9,8.61,8.61,0,0,1-1.89.83,12.25,12.25,0,0,1-1.38.29s.16,1,.29,1.43a1.43,1.43,0,0,0,1.73,1A11.13,11.13,0,0,0,26,65.87a10.78,10.78,0,0,0,3.94-14.7A11.3,11.3,0,0,0,28.24,49a10.74,10.74,0,0,0-13-1.76"/></clipPath><clipPath id="clip-path-3"><path class="cls-1" d="M40.55,33c-.47.13-1.38.47-1.38.47a11.86,11.86,0,0,1,.44,1.34,8.83,8.83,0,0,1,.23,2,7.92,7.92,0,0,1-15.84,0,8.84,8.84,0,0,1,.24-2,12.7,12.7,0,0,1,.43-1.34s-.91-.34-1.38-.47a1.43,1.43,0,0,0-1.74,1,10.6,10.6,0,0,0-.38,2.86,10.76,10.76,0,1,0,21.51,0A11,11,0,0,0,42.3,34,1.44,1.44,0,0,0,40.93,33a1.65,1.65,0,0,0-.38.05"/></clipPath></defs><g class="cls-2"><path class="cls-1" d="M24.46,34.08a7.25,7.25,0,0,0-.22.76h0A8.6,8.6,0,0,0,24,36.2s0,.08,0,.12q.26.12.51.27A7.92,7.92,0,0,1,28.47,44l.61.26a6,6,0,0,0,.85.27,8.28,8.28,0,0,0,1.32.23,10.14,10.14,0,0,0,.08-1.34A10.74,10.74,0,0,0,26,34.13a10.13,10.13,0,0,0-1.28-.63c0,.09-.12.32-.21.58"/><path class="cls-1" d="M39.14,33.51a11,11,0,0,0-1.24.62,10.75,10.75,0,0,0-5.3,10.65,8.48,8.48,0,0,0,1.32-.23c.23-.06.46-.13.68-.21a7.35,7.35,0,0,0,.77-.32h0a7.89,7.89,0,0,1,1.71-5.52,7.79,7.79,0,0,1,2.23-1.91,4.11,4.11,0,0,1,.51-.27h0a7.83,7.83,0,0,0-.21-1.45v0a6.65,6.65,0,0,0-.23-.76c-.08-.27-.17-.49-.2-.58h0"/><path class="cls-1" d="M35.68,54.31s0,.09,0,.14A9.06,9.06,0,0,0,35.37,56a7.91,7.91,0,0,1,4.46,7.13v0a5.33,5.33,0,0,1,0,.56l.62.28.74.26h0a10.62,10.62,0,0,0,1.37.29,11.16,11.16,0,0,0,.09-1.42A10.75,10.75,0,0,0,36.1,53.2a7.44,7.44,0,0,0-.42,1.11"/><path class="cls-1" d="M21.17,63.11a9.79,9.79,0,0,0,.08,1.33s0,.06,0,.09.34,0,.62-.11.52-.11.76-.18l.06,0a8.82,8.82,0,0,0,1.24-.49l.09,0a4.87,4.87,0,0,1,0-.54h0v0A7.89,7.89,0,0,1,28.47,56a8.16,8.16,0,0,0-.26-1.53,7.83,7.83,0,0,0-.47-1.25,10.74,10.74,0,0,0-6.57,9.91"/><path class="cls-1" d="M15,50.93h0l-.53.56L14,52a10.55,10.55,0,0,0,1.18.79A10.78,10.78,0,0,0,27.06,52a7.05,7.05,0,0,0-.85-1,5.56,5.56,0,0,0-.5-.47A7,7,0,0,0,25,50a7.61,7.61,0,0,1-.87.51,7.94,7.94,0,0,1-7.54-.21c-.16-.09-.33-.2-.48-.3a7.66,7.66,0,0,0-1.18.93"/><path class="cls-1" d="M49.83,52h0ZM35.6,49A11.3,11.3,0,0,0,34,51.18a10.6,10.6,0,0,0-1.05,2.51,10.76,10.76,0,0,0,5,12.19A11.1,11.1,0,0,0,40.56,67a1.49,1.49,0,0,0,.36,0A1.42,1.42,0,0,0,42.29,66c.13-.47.29-1.43.29-1.43h0a10.62,10.62,0,0,1-1.37-.29h0c-.26-.08-.5-.17-.74-.26l-.62-.28-.5-.28A7.91,7.91,0,0,1,35.37,56a9.06,9.06,0,0,1,.26-1.53c0-.05,0-.1,0-.14a7.79,7.79,0,0,1,.73-1.71,8.37,8.37,0,0,1,.53-.79h0a7.07,7.07,0,0,1,.67-.78,7.81,7.81,0,0,1,5.64-2.36,7.85,7.85,0,0,1,4,1.06l.48.3a7.66,7.66,0,0,1,1.18.93L49,51h0l.14.15c.32.33.64.71.74.83s.74-.61,1.08-1a1.42,1.42,0,0,0,0-2,10.52,10.52,0,0,0-2.28-1.76A10.77,10.77,0,0,0,35.6,49"/><g class="cls-3"><rect class="cls-1" x="27" y="41.9" width="29.08" height="29.01" transform="translate(-28.06 48.49) rotate(-47.14)"/></g><path class="cls-1" d="M15.19,47.24A10.77,10.77,0,0,0,12.91,49a1.42,1.42,0,0,0,0,2c.34.34,1.09,1,1.09,1s.55-.67.94-1a8.6,8.6,0,0,1,1.66-1.23,7.9,7.9,0,0,1,9.6,1.3,7.69,7.69,0,0,1,1.22,1.6,8.15,8.15,0,0,1,.78,1.85,7.91,7.91,0,0,1-3.68,9,8.61,8.61,0,0,1-1.89.83,12.25,12.25,0,0,1-1.38.29s.16,1,.29,1.43a1.43,1.43,0,0,0,1.73,1A11.13,11.13,0,0,0,26,65.87a10.78,10.78,0,0,0,3.94-14.7A11.3,11.3,0,0,0,28.24,49a10.74,10.74,0,0,0-13-1.76"/><g class="cls-4"><rect class="cls-1" x="7.71" y="41.92" width="29.2" height="29.12" transform="translate(-34.27 34.41) rotate(-47.14)"/></g><path class="cls-1" d="M40.55,33c-.47.13-1.38.47-1.38.47a11.86,11.86,0,0,1,.44,1.34,8.83,8.83,0,0,1,.23,2,7.92,7.92,0,0,1-15.84,0,8.84,8.84,0,0,1,.24-2,12.7,12.7,0,0,1,.43-1.34s-.91-.34-1.38-.47a1.43,1.43,0,0,0-1.74,1,10.6,10.6,0,0,0-.38,2.86,10.76,10.76,0,1,0,21.51,0A11,11,0,0,0,42.3,34,1.44,1.44,0,0,0,40.93,33a1.65,1.65,0,0,0-.38.05"/><g class="cls-5"><rect class="cls-1" x="19.08" y="27.39" width="25.69" height="25.69" transform="translate(-19.1 34.36) rotate(-45)"/></g><path class="cls-1" d="M47.23,50.3a7.89,7.89,0,0,1-8.18-.15h0L38.84,50h0l-.31.22a6.91,6.91,0,0,0-.71.61h-.2l0,0h0a7.12,7.12,0,0,0-.78,1,10.73,10.73,0,0,0,11.87.73A9.33,9.33,0,0,0,49.83,52l-.07-.09c-.13-.15-.4-.47-.66-.74L49,51l-.06,0A7.9,7.9,0,0,0,47.71,50c-.15.1-.32.21-.48.3"/><path class="cls-1" d="M59.85,43h4.36c5,0,7.67,2.77,7.67,6.92S68.86,57,64,57H59.85ZM64,54.94c3.71,0,5.11-2.34,5.11-5,0-2.94-1.72-4.87-5.15-4.87H62.4v9.85Z"/><path class="cls-1" d="M73.17,43.81a1.57,1.57,0,1,1,1.56,1.51,1.5,1.5,0,0,1-1.56-1.51M73.45,47H76V57H73.45Z"/><path class="cls-1" d="M76.87,59.12a2.72,2.72,0,0,1,1.81-2.43A1.44,1.44,0,0,1,78,55.43a2.47,2.47,0,0,1,1.22-1.89,3.52,3.52,0,0,1-1.68-3.13,3.74,3.74,0,0,1,4.1-3.7,4.24,4.24,0,0,1,2,.44.23.23,0,0,0,.25,0,3.09,3.09,0,0,1,2.43-.87,6.23,6.23,0,0,1,.68,0l-.51,1.83a3.24,3.24,0,0,0-.75-.11,1.66,1.66,0,0,0-.74.17,3.49,3.49,0,0,1,.89,2.39c0,2.26-1.72,3.72-4.17,3.72a4.06,4.06,0,0,1-1.23-.17,1.37,1.37,0,0,0-.26.75c0,1.81,6.62.13,6.62,3.9,0,1.83-1.83,3.32-5.32,3.32-3,0-4.69-1.22-4.69-3M84.45,59c0-1.45-3.13-1.15-4.49-1.68a1.69,1.69,0,0,0-.81,1.32c0,1,1.07,1.62,2.75,1.62,1.53,0,2.55-.51,2.55-1.26m-.93-8.51a1.8,1.8,0,0,0-1.81-1.9A1.69,1.69,0,0,0,80,50.49a1.75,1.75,0,0,0,1.77,1.88,1.7,1.7,0,0,0,1.79-1.85"/><path class="cls-1" d="M88.16,47h2.17l.26,1.13A5.6,5.6,0,0,1,94,46.71c1.6,0,3.24.78,3.24,3.66V57H94.72V51.16c0-1.24-.26-2.24-1.56-2.24A4.17,4.17,0,0,0,90.69,50V57H88.16Z"/><path class="cls-1" d="M98.76,43.81a1.57,1.57,0,0,1,3.13,0,1.53,1.53,0,0,1-1.58,1.51,1.5,1.5,0,0,1-1.55-1.51M99,47h2.56V57H99Z"/><path class="cls-1" d="M105,54.54v-5.6h-1.8V47H105V44.62l2.54-.75V47h3l-.61,2h-2.43v5c0,.94.32,1.28,1,1.28a2.81,2.81,0,0,0,1.53-.49l.77,1.75a5.78,5.78,0,0,1-2.94.78,2.58,2.58,0,0,1-2.88-2.7"/><path class="cls-1" d="M111.55,59.65a3.38,3.38,0,0,0,1.51.38c1.13,0,2-.76,2.81-3.06l-4.53-10H114l3,7.15h0L119.52,47h2.57l-3.85,10.39c-1.58,4.19-3.24,4.73-5.07,4.73a5.53,5.53,0,0,1-2.26-.47Z"/><polygon class="cls-1" points="127.08 43 129.63 43 129.63 48.79 136.45 48.79 136.45 43 139.02 43 139.02 57.03 136.45 57.03 136.45 50.96 129.63 50.96 129.63 57.03 127.08 57.03 127.08 43"/><path class="cls-1" d="M140.6,52c0-3,1.66-5.3,4.53-5.3s4.47,2,4.47,5.38v.6h-6.45A2.57,2.57,0,0,0,146,55.24a5,5,0,0,0,2.56-.68l.76,1.75a6.71,6.71,0,0,1-3.55.93c-3.68,0-5.15-2.51-5.15-5.23M147,50.92c-.05-1.15-.6-2.28-1.94-2.28a2.05,2.05,0,0,0-2,2.28Z"/><path class="cls-1" d="M156.86,56.07A4.14,4.14,0,0,1,154,57.24,3.14,3.14,0,0,1,150.62,54a2.88,2.88,0,0,1,1.71-2.75,6.19,6.19,0,0,1,2.59-.57l1.73-.07v-.32c0-1.17-.77-1.68-1.94-1.68a5.77,5.77,0,0,0-2.64.7l-.83-1.63a7.92,7.92,0,0,1,3.9-1c2.7,0,4,1.23,4,3.66v4.09a11.49,11.49,0,0,0,.19,2.57h-2.12Zm-1.57-3.68a3.21,3.21,0,0,0-1.47.32,1.21,1.21,0,0,0-.62,1.15,1.32,1.32,0,0,0,1.49,1.38,3.15,3.15,0,0,0,2-.74V52.35Z"/><path class="cls-1" d="M160.94,42h2.54V54.07c0,.7.27.92.74.92a2.26,2.26,0,0,0,.64-.13l.49,2a5.08,5.08,0,0,1-1.87.36c-1.68,0-2.54-.83-2.54-2.43Z"/><path class="cls-1" d="M166.91,54.54v-5.6H165.1V47h1.81V44.62l2.53-.75V47h3.05l-.62,2h-2.43v5c0,.94.32,1.28,1,1.28a2.78,2.78,0,0,0,1.53-.49l.77,1.75a5.75,5.75,0,0,1-2.94.78,2.57,2.57,0,0,1-2.87-2.7"/><path class="cls-1" d="M173.75,42h2.53v6.11a5.3,5.3,0,0,1,3.35-1.37c1.59,0,3.21.79,3.21,3.67V57h-2.53V51.15c0-1.23-.26-2.23-1.56-2.23A4.12,4.12,0,0,0,176.28,50V57h-2.53Z"/><path class="cls-1" d="M184.7,55.19V57h-.28V55.19h-.58v-.27h1.45v.27ZM187.22,57V55.51l-.5,1h-.28l-.5-1V57h-.28v-2.1h.28l.64,1.28.64-1.28h.28V57Z"/></g></svg>