<svg id="Layer_1" data-name="Layer 1" xmlns="http://www.w3.org/2000/svg" viewBox="0 0 200 100"><defs><style>.cls-1{opacity:0.25;}.cls-2{fill:#58595b;}</style></defs><g class="cls-1"><path class="cls-2" d="M57,64.3A8.33,8.33,0,1,1,65.43,56,8.18,8.18,0,0,1,57,64.3m0-14A5.44,5.44,0,0,0,51.56,56,5.52,5.52,0,0,0,57,61.7,5.44,5.44,0,0,0,62.47,56,5.53,5.53,0,0,0,57,50.25"/><path class="cls-2" d="M74.08,58.85H70.89V64H68.06V47.93h6.35c3.75,0,6.12,2.11,6.12,5.4,0,3.64-2.9,5.52-6.45,5.52m.1-8.35H70.89v5.8h3.29c2.14,0,3.47-1.17,3.47-2.9,0-1.91-1.36-2.9-3.47-2.9"/><polygon class="cls-2" points="89.77 64.03 86.92 64.03 86.92 50.55 81.81 50.55 81.81 47.93 94.88 47.93 94.88 50.55 89.77 50.55 89.77 64.03"/><path class="cls-2" d="M111.17,57.06c0,4.81-2.72,7.22-6.93,7.22s-6.85-2.41-6.85-7.08V47.92h2.83v9.16c0,3,1.54,4.6,4.07,4.6s4-1.52,4-4.48V47.92h2.83Z"/><polygon class="cls-2" points="122.16 60.07 122.07 60.07 117.03 52.53 117.03 64.03 114.25 64.03 114.25 47.93 117.26 47.93 122.16 55.54 127.06 47.93 130.08 47.93 130.08 64.03 127.25 64.03 127.25 52.48 122.16 60.07"/><path class="cls-2" d="M138.06,55h.41c2.17,0,5.42-.22,5.42-3.2,0-1.78-1.94-2.58-3.66-2.58a8.29,8.29,0,0,0-3.57.85l-.13-1.49a11.17,11.17,0,0,1,3.86-.73c2.63,0,5.07,1.12,5.07,3.95a4,4,0,0,1-3.31,3.82v.05c2.13.09,3.31,1.73,3.31,3.86,0,2.9-2.56,4.59-5.76,4.59a10.91,10.91,0,0,1-3.93-.63L136,62a8.94,8.94,0,0,0,3.84.78c1.92,0,4.09-.93,4.09-3.36,0-2.74-2.65-3-4.37-3h-1.46Z"/><path class="cls-2" d="M147.68,56.59c0-4.83,1.81-8.71,7.2-8.71a11.05,11.05,0,0,1,2.56.36l-.13,1.51a7.08,7.08,0,0,0-2.63-.5c-4.14-.07-5.42,3.38-5.42,6.63h.05a4.25,4.25,0,0,1,3.75-2c2.1,0,5,1,5,5a4.9,4.9,0,0,1-5.22,5.25c-4.22,0-5.12-3.81-5.12-7.56m1.74,2.24c0,2,1.07,4,3.43,4A3.44,3.44,0,0,0,156.44,59c0-2.33-1.17-3.73-3.38-3.73a3.36,3.36,0,0,0-3.64,3.55"/><path class="cls-2" d="M179.1,47.78a3.46,3.46,0,0,1,3.57,3.67,3.57,3.57,0,1,1-7.14,0,3.46,3.46,0,0,1,3.57-3.67m0,6.3a2.35,2.35,0,0,0,2.19-2.63,2.23,2.23,0,1,0-4.39,0,2.36,2.36,0,0,0,2.2,2.63"/><path class="cls-2" d="M172.66,48.57l.12.14-.26-4.83-1.75,3.3a7.75,7.75,0,0,1,1.89,1.39"/><path class="cls-2" d="M170.77,47.18l1.75-3.3-4.17,2.51a7.91,7.91,0,0,1,2.42.79"/><path class="cls-2" d="M166.82,47.76c4.8,0,7.06,3.94,7,8.26-.05,4.89-2.43,8.25-7,8.25s-7-3.36-7-8.25c-.05-4.32,2.22-8.26,7-8.26M161.38,56c0,3.38,1.69,6.88,5.44,6.88s5.44-3.5,5.44-6.88-1.69-6.89-5.44-6.89-5.44,3.5-5.44,6.89"/><path class="cls-2" d="M184.43,50.14h0a2.41,2.41,0,1,1,4.82,0v0a2.41,2.41,0,1,1-4.82,0m4.54,0v0a2.13,2.13,0,1,0-4.26,0h0a2.13,2.13,0,1,0,4.26,0m-3-1.26H187c.5,0,.9.26.9.75a.74.74,0,0,1-.6.73l.68.94h-.48l-.61-.88h-.58v.88h-.39Zm1,1.22c.34,0,.54-.18.54-.45s-.21-.43-.54-.43h-.65v.88Z"/><path class="cls-2" d="M35.22,50.39c-.59,2.31-1.18,4.69-1.76,7.12,2.58,1.66,5.1,3.3,7.61,4.71-1.92-3.65-3.85-7.67-5.85-11.83"/><path class="cls-2" d="M35.22,50.39C37.52,52,39.77,53.7,42,55.23q-.45,3.38-.92,7c-1.92-3.65-3.85-7.67-5.85-11.83"/><path class="cls-2" d="M35.22,50.39c-.59,2.31-1.18,4.69-1.76,7.12-2.57-1.66-5.19-3.34-7.83-4.85a60.07,60.07,0,0,1,9.59-2.27"/><path class="cls-2" d="M35.22,50.39c-2.3-1.64-4.65-3.26-7-4.72-.87,2.3-1.72,4.65-2.56,7a60.07,60.07,0,0,1,9.59-2.27"/><path class="cls-2" d="M37.84,40.94c-.39,1.32-.79,2.69-1.18,4.1,2.06,1.65,4.07,3.35,6,5-1.59-2.85-3.2-5.92-4.85-9.08"/><path class="cls-2" d="M37.84,40.94c1.86,1.67,3.65,3.4,5.39,5.1-.17,1.29-.36,2.62-.54,4-1.59-2.85-3.2-5.92-4.85-9.08"/><path class="cls-2" d="M35.22,50.39q.72-2.76,1.44-5.36c2.06,1.66,4.07,3.36,6,5a37.89,37.89,0,0,0-7.47.36"/><path class="cls-2" d="M35.22,50.39C37.52,52,39.77,53.7,42,55.23c.23-1.79.47-3.52.7-5.2a37.89,37.89,0,0,0-7.47.36"/><path class="cls-2" d="M37.84,40.94c.33-1.1.65-2.16,1-3.18,1.68,1.68,3.29,3.42,4.84,5.16a25.21,25.21,0,0,0-5.81-2"/><path class="cls-2" d="M37.84,40.94c1.86,1.67,3.65,3.4,5.39,5.1q.23-1.6.42-3.12a25.21,25.21,0,0,0-5.81-2"/><path class="cls-2" d="M37.84,40.94c.33-1.1.65-2.16,1-3.18-1.67-1.69-3.41-3.32-5.19-4.83,1.44,2.69,2.85,5.38,4.22,8"/><path class="cls-2" d="M37.84,40.94c-1.85-1.68-3.77-3.3-5.73-4.79.5-1.11,1-2.19,1.51-3.22,1.44,2.69,2.85,5.38,4.22,8"/><path class="cls-2" d="M21.07,41.93c-1.11,2.33-2.19,4.68-3.25,7a53.75,53.75,0,0,1,7.81,3.75c-1.5-3.67-3-7.28-4.56-10.73"/><path class="cls-2" d="M21.07,41.93a54.23,54.23,0,0,1,7.12,3.74c-.87,2.3-1.72,4.65-2.56,7-1.5-3.67-3-7.28-4.56-10.73"/><path class="cls-2" d="M21.07,41.93c-1.11,2.33-2.19,4.68-3.25,7a21,21,0,0,0-7.07-1.5,32.52,32.52,0,0,1,10.32-5.48"/><path class="cls-2" d="M21.07,41.93A25.82,25.82,0,0,0,14.34,40c-1.25,2.51-2.44,5-3.59,7.42a32.52,32.52,0,0,1,10.32-5.48"/><path class="cls-2" d="M26.15,32.14c-.79,1.39-1.58,2.83-2.34,4.29A31,31,0,0,0,17.45,34a24.87,24.87,0,0,1,8.7-1.9"/><path class="cls-2" d="M26.15,32.14a35.32,35.32,0,0,0-6-2.79c-.94,1.52-1.86,3.09-2.74,4.69a24.87,24.87,0,0,1,8.7-1.9"/><path class="cls-2" d="M21.07,41.93c.89-1.85,1.8-3.7,2.74-5.5A31,31,0,0,0,17.45,34c1.19,2.5,2.4,5.14,3.62,7.89"/><path class="cls-2" d="M21.07,41.93A25.82,25.82,0,0,0,14.34,40c1-2,2-4,3.11-6,1.19,2.5,2.4,5.14,3.62,7.89"/><path class="cls-2" d="M26.15,32.14c.66-1.15,1.33-2.27,2-3.35a60.49,60.49,0,0,1,5.47,4.14,26.61,26.61,0,0,0-7.47-.79"/><path class="cls-2" d="M26.15,32.14a58.13,58.13,0,0,1,6,4c.5-1.11,1-2.19,1.51-3.22a26.61,26.61,0,0,0-7.47-.79"/><path class="cls-2" d="M26.15,32.14c.66-1.15,1.33-2.27,2-3.35A39.07,39.07,0,0,0,22.6,25.7c1.19,2.07,2.37,4.23,3.55,6.44"/><path class="cls-2" d="M26.15,32.14a35.32,35.32,0,0,0-6-2.79c.78-1.26,1.59-2.48,2.41-3.65,1.19,2.07,2.37,4.23,3.55,6.44"/></g></svg>