<?xml version="1.0" encoding="utf-8"?>
<!-- Generator: Adobe Illustrator 24.0.3, SVG Export Plug-In . SVG Version: 6.00 Build 0)  -->
<svg version="1.1" id="Layer_1" xmlns="http://www.w3.org/2000/svg" xmlns:xlink="http://www.w3.org/1999/xlink" x="0px" y="0px"
	 viewBox="0 0 600 95.3" style="enable-background:new 0 0 600 95.3;" xml:space="preserve">
<style type="text/css">
	.st0{opacity:0.65;}
	.st1{fill:#FFFFFF;}
</style>
<g id="Salucro_Logo_1_" class="st0">
	<g>
		<g>
			<path class="st1" d="M3.1,81.2c1.1-1.6,2.1-3.4,3.2-5.1c1.1-1.6,2.8-2.1,4.2-1c0.7,0.6,10.2,8.5,19.8,8.5
				c8.5,0,13.9-5.2,13.9-11.5c0-7.4-6.4-12.1-18.6-17.2C13,49.7,3.1,43.2,3.1,28.9c0-9.6,7.4-22.8,27-22.8c12.4,0,21.6,6.4,22.8,7.3
				c1,0.6,2,2.4,0.7,4.2c-1,1.5-2.1,3.2-3.1,4.7c-1,1.6-2.6,2.4-4.3,1.2c-0.9-0.5-9.5-6.2-16.7-6.2c-10.4,0-13.9,6.5-13.9,11.1
				c0,7,5.4,11.4,15.7,15.5c14.3,5.8,26.5,12.6,26.5,27.7c0,12.8-11.5,23.3-27.5,23.3c-15.1,0-24.6-7.9-26.5-9.8
				C2.7,84.2,1.9,83.3,3.1,81.2"/>
			<path class="st1" d="M65.1,90.5L103,7.4c0.4-0.7,1.5-1.4,2.1-1.4h1.2c0.6,0,1.7,0.6,2.1,1.4L146,90.5c0.7,1.6-0.2,3.2-2.1,3.2
				h-7.8c-1.5,0-2.4-0.7-2.8-1.8l-7.7-16.9H85.3c-2.5,5.7-5.1,11.2-7.5,16.9c-0.4,0.9-1.4,1.8-2.8,1.8h-7.8
				C65.3,93.7,64.3,92.1,65.1,90.5 M121,64.3l-15.2-33.8h-0.6L90.1,64.3H121z"/>
			<path class="st1" d="M160.1,9.6c0-1.2,1-2.3,2.4-2.3h8.1c1.2,0,2.4,1.1,2.4,2.3v72.6h33.4c1.4,0,2.4,1.1,2.4,2.3v6.8
				c0,1.2-1,2.3-2.4,2.3h-43.9c-1.4,0-2.4-1.1-2.4-2.3V9.6z"/>
			<path class="st1" d="M220.7,9.6c0-1.2,1.1-2.3,2.3-2.3h8.3c1.4,0,2.4,1.1,2.4,2.3v51c0,12.3,7.9,22,20.5,22
				c12.7,0,20.7-9.5,20.7-21.7V9.6c0-1.2,1-2.3,2.4-2.3h8.3c1.2,0,2.3,1.1,2.3,2.3v51.8c0,18.8-14.2,33.5-33.7,33.5
				c-19.4,0-33.4-14.7-33.4-33.5L220.7,9.6L220.7,9.6z"/>
			<path class="st1" d="M350.7,6c12.5,0,21.5,4.2,29.9,11.5c1.1,1,1.1,2.5,0.1,3.5l-5.4,5.6c-0.9,1.1-2,1.1-3.1,0
				c-5.8-5.1-13.7-8.3-21.4-8.3c-17.6,0-31,14.8-31,32.1s13.5,32,31.1,32c9,0,15.3-3.6,21.2-8.2c1.1-0.9,2.2-0.7,3-0.1l5.7,5.6
				c1,0.9,0.7,2.5-0.1,3.3c-8.4,8.2-19,12-30,12c-24.7,0-44.6-19.6-44.6-44.3S326,6,350.7,6"/>
			<path class="st1" d="M400,9.6c0-1.2,1-2.3,2.4-2.3H436c14.8,0,26.9,11.7,26.9,26.4c0,11.4-7.5,20.7-18.3,25l16.9,31.3
				c0.9,1.6,0,3.6-2.1,3.6h-9.6c-1,0-1.7-0.6-2-1.1l-16.4-32.7h-18.6v31.5c0,1.2-1.1,2.3-2.4,2.3h-8c-1.4,0-2.4-1.1-2.4-2.3L400,9.6
				L400,9.6z M435,49.2c8,0,15.1-6.8,15.1-15.3c0-8-7-14.7-15.1-14.7h-22v30C413,49.2,435,49.2,435,49.2z"/>
			<path class="st1" d="M521.9,6c24.7,0,44.4,19.9,44.4,44.6c0,24.7-19.8,44.3-44.4,44.3s-44.3-19.6-44.3-44.3
				C477.6,25.9,497.2,6,521.9,6 M521.9,82.6c17.7,0,32.1-14.3,32.1-32c0-17.5-14.4-32.2-32.1-32.2c-17.5,0-32,14.7-32,32.2
				C489.9,68.2,504.4,82.6,521.9,82.6"/>
			<path class="st1" d="M579.1,8.8c0-0.2,0.2-0.4,0.3-0.4h5c2.2,0,4,1.8,4,3.9c0,1.7-1.1,3.1-2.7,3.7l2.5,4.7c0.1,0.2,0,0.5-0.3,0.5
				h-1.4c-0.1,0-0.2-0.1-0.3-0.2l-2.5-4.9H581V21c0,0.2-0.2,0.4-0.3,0.4h-1.2c-0.2,0-0.3-0.2-0.3-0.4L579.1,8.8L579.1,8.8z
				 M584.3,14.7c1.2,0,2.2-1,2.2-2.3c0-1.2-1-2.2-2.2-2.2h-3.3v4.5C581.1,14.7,584.3,14.7,584.3,14.7z"/>
			<path class="st1" d="M583.1,29.2c-8,0-14.4-6.5-14.4-14.4c0-8,6.5-14.4,14.4-14.4c7.9,0,14.4,6.5,14.4,14.4
				C597.5,22.8,591,29.2,583.1,29.2 M583.1,3.5c-6.2,0-11.3,5.1-11.3,11.3s5.1,11.3,11.3,11.3s11.3-5.1,11.3-11.3
				C594.4,8.6,589.3,3.5,583.1,3.5"/>
		</g>
	</g>
</g>
</svg>
