<?xml version="1.0" encoding="utf-8"?>
<!-- Generator: Adobe Illustrator 24.0.3, SVG Export Plug-In . SVG Version: 6.00 Build 0)  -->
<svg version="1.1" id="Layer_1" xmlns="http://www.w3.org/2000/svg" xmlns:xlink="http://www.w3.org/1999/xlink" x="0px" y="0px"
	 viewBox="0 0 600 95.31" style="enable-background:new 0 0 600 95.31;" xml:space="preserve">
<style type="text/css">
	.st0{fill:#282D2F;}
</style>
<g id="Salucro_Logo_1_">
	<g>
		<g>
			<path class="st0" d="M3.1,81.2c1.11-1.6,2.1-3.45,3.21-5.06c1.11-1.6,2.84-2.1,4.2-0.99c0.74,0.62,10.25,8.52,19.75,8.52
				c8.52,0,13.95-5.18,13.95-11.48c0-7.4-6.42-12.09-18.64-17.15C12.98,49.73,3.1,43.19,3.1,28.87c0-9.62,7.41-22.83,27.03-22.83
				c12.35,0,21.61,6.42,22.84,7.28c0.99,0.62,1.97,2.35,0.74,4.19c-0.99,1.48-2.1,3.21-3.09,4.69c-0.99,1.61-2.59,2.35-4.32,1.24
				c-0.86-0.5-9.5-6.17-16.67-6.17c-10.36,0-13.95,6.54-13.95,11.11c0,7.04,5.43,11.35,15.68,15.55
				c14.31,5.81,26.54,12.59,26.54,27.65c0,12.84-11.48,23.33-27.52,23.33c-15.06,0-24.57-7.9-26.54-9.75
				C2.73,84.16,1.87,83.31,3.1,81.2"/>
			<path class="st0" d="M65.07,90.46l37.89-83.07c0.37-0.74,1.48-1.36,2.09-1.36h1.23c0.62,0,1.73,0.62,2.1,1.36l37.64,83.07
				c0.74,1.6-0.24,3.21-2.1,3.21h-7.77c-1.49,0-2.35-0.74-2.84-1.85l-7.65-16.91H85.31c-2.47,5.67-5.06,11.23-7.53,16.91
				c-0.37,0.86-1.36,1.85-2.84,1.85h-7.78C65.32,93.67,64.33,92.07,65.07,90.46 M120.98,64.29L105.8,30.47h-0.61L90.12,64.29H120.98
				z"/>
			<path class="st0" d="M160.11,9.62c0-1.24,0.99-2.35,2.35-2.35h8.14c1.24,0,2.35,1.11,2.35,2.35v72.57h33.45
				c1.36,0,2.35,1.11,2.35,2.35v6.79c0,1.24-0.99,2.35-2.35,2.35h-43.94c-1.36,0-2.35-1.11-2.35-2.35V9.62z"/>
			<path class="st0" d="M220.71,9.62c0-1.24,1.11-2.35,2.34-2.35h8.27c1.36,0,2.35,1.11,2.35,2.35v50.98
				c0,12.34,7.89,21.97,20.48,21.97c12.72,0,20.74-9.5,20.74-21.72V9.62c0-1.24,0.99-2.35,2.35-2.35h8.27
				c1.23,0,2.34,1.11,2.34,2.35v51.84c0,18.76-14.2,33.45-33.7,33.45c-19.38,0-33.45-14.69-33.45-33.45V9.62z"/>
			<path class="st0" d="M350.68,6.03c12.47,0,21.48,4.2,29.87,11.48c1.11,0.99,1.11,2.47,0.12,3.45l-5.43,5.55
				c-0.86,1.11-1.97,1.11-3.09,0c-5.8-5.06-13.7-8.26-21.35-8.26c-17.65,0-30.98,14.81-30.98,32.09c0,17.28,13.45,31.98,31.11,31.98
				c9.01,0,15.3-3.59,21.22-8.15c1.12-0.86,2.23-0.74,2.97-0.12l5.67,5.56c0.99,0.86,0.74,2.46-0.13,3.33
				c-8.39,8.15-19.01,11.97-29.99,11.97c-24.68,0-44.56-19.63-44.56-44.32S326,6.03,350.68,6.03"/>
			<path class="st0" d="M400.05,9.62c0-1.24,0.99-2.35,2.35-2.35h33.57c14.81,0,26.91,11.73,26.91,26.42
				c0,11.35-7.53,20.73-18.27,25.05l16.91,31.35c0.86,1.6,0,3.58-2.09,3.58h-9.63c-0.99,0-1.73-0.61-1.98-1.11l-16.41-32.71h-18.64
				v31.47c0,1.23-1.11,2.34-2.35,2.34h-8.02c-1.36,0-2.35-1.11-2.35-2.34V9.62z M434.99,49.24c8.02,0,15.06-6.79,15.06-15.3
				c0-8.02-7.04-14.69-15.06-14.69h-21.97v29.99H434.99z"/>
			<path class="st0" d="M521.88,6.03c24.69,0,44.43,19.88,44.43,44.56c0,24.69-19.75,44.32-44.43,44.32
				c-24.68,0-44.31-19.62-44.31-44.32C477.57,25.91,497.2,6.03,521.88,6.03 M521.88,82.56c17.65,0,32.09-14.32,32.09-31.97
				c0-17.52-14.44-32.21-32.09-32.21c-17.53,0-31.97,14.69-31.97,32.21C489.91,68.24,504.35,82.56,521.88,82.56"/>
			<path class="st0" d="M579.13,8.81c0-0.18,0.15-0.35,0.35-0.35h5.01c2.21,0,4.02,1.75,4.02,3.94c0,1.7-1.12,3.1-2.73,3.74
				l2.52,4.67c0.13,0.24,0,0.53-0.31,0.53h-1.44c-0.14,0-0.25-0.09-0.29-0.16l-2.45-4.88h-2.79v4.69c0,0.19-0.16,0.35-0.35,0.35
				h-1.2c-0.2,0-0.35-0.16-0.35-0.35V8.81z M584.34,14.71c1.2,0,2.25-1.01,2.25-2.28c0-1.2-1.05-2.19-2.25-2.19h-3.28v4.47H584.34z"
				/>
			<path class="st0" d="M583.09,29.22c-7.95,0-14.41-6.46-14.41-14.41c0-7.96,6.46-14.41,14.41-14.41c7.94,0,14.41,6.46,14.41,14.41
				C597.5,22.75,591.04,29.22,583.09,29.22 M583.09,3.52c-6.23,0-11.3,5.06-11.3,11.29c0,6.23,5.07,11.29,11.3,11.29
				c6.23,0,11.29-5.07,11.29-11.29C594.39,8.58,589.32,3.52,583.09,3.52"/>
		</g>
	</g>
</g>
</svg>
