<svg id="Layer_1" data-name="Layer 1" xmlns="http://www.w3.org/2000/svg" xmlns:xlink="http://www.w3.org/1999/xlink" viewBox="0 0 833 500"><defs><style>.cls-1,.cls-10,.cls-14{fill:none;}.cls-2{fill:#d8d8d8;}.cls-13,.cls-2,.cls-3,.cls-4,.cls-9{fill-rule:evenodd;}.cls-3{fill:silver;}.cls-4,.cls-8{fill:#65a798;}.cls-5{fill:#77c8ae;}.cls-6{clip-path:url(#clip-path);}.cls-7{clip-path:url(#clip-path-2);}.cls-9{fill:#fff;}.cls-10{stroke:#e5e5e5;stroke-miterlimit:1.5;stroke-width:3px;}.cls-11{fill:#0d0d0d;}.cls-12{clip-path:url(#clip-path-3);}.cls-13{fill:#383737;}.cls-14{font-size:38.49px;stroke:silver;stroke-linejoin:round;stroke-width:0.8px;font-family:AvenirNext-UltraLight, Avenir Next;font-weight:100;}</style><clipPath id="clip-path"><rect class="cls-1" x="20.63" y="55.56" width="625" height="361.11"/></clipPath><clipPath id="clip-path-2"><rect class="cls-1" x="-132.49" y="-78.83" width="696.12" height="314.94"/></clipPath><clipPath id="clip-path-3"><path class="cls-1" d="M283.13,250h100a27.78,27.78,0,0,1,27.78,27.78v0a27.77,27.77,0,0,1-27.77,27.77h-100a27.77,27.77,0,0,1-27.77-27.77v0A27.77,27.77,0,0,1,283.13,250Z"/></clipPath></defs><path class="cls-2" d="M666.46,30.09A30.08,30.08,0,0,0,636.38,0H29.89A30.09,30.09,0,0,0-.2,30.09V416.67H666.46Z"/><path class="cls-2" d="M833.13,472.22A27.78,27.78,0,0,1,805.36,500c-92.44,0-544.31-2.37-613.37-2.73a59.8,59.8,0,0,1-17.41-2.69c-29.74-9.2-128.3-39.86-155.34-50.14C4.9,439-.2,432-.2,416.67h0l169.44,55.55Z"/><polygon class="cls-3" points="666.46 416.67 -0.2 416.67 166.47 472.22 833.13 472.22 666.46 416.67"/><path class="cls-4" d="M333.13,20.73a7.05,7.05,0,1,1-7,7.05A7.05,7.05,0,0,1,333.13,20.73Z"/><rect class="cls-5" x="20.63" y="55.56" width="625" height="333.33"/><g class="cls-6"><g class="cls-7"><circle class="cls-8" cx="25.73" cy="211.61" r="3.28"/><circle class="cls-8" cx="25.73" cy="190.31" r="3.28"/><circle class="cls-8" cx="25.73" cy="168.8" r="3.28"/><circle class="cls-8" cx="25.73" cy="147.18" r="3.28"/><circle class="cls-8" cx="25.73" cy="125.56" r="3.28"/><circle class="cls-8" cx="25.73" cy="103.94" r="3.28"/><circle class="cls-8" cx="25.73" cy="82.31" r="3.28"/><circle class="cls-8" cx="25.73" cy="60.36" r="3.28"/><circle class="cls-8" cx="53.84" cy="189.36" r="3.28"/><circle class="cls-8" cx="53.84" cy="168.06" r="3.28"/><circle class="cls-8" cx="53.84" cy="146.55" r="3.28"/><circle class="cls-8" cx="53.84" cy="124.93" r="3.28"/><circle class="cls-8" cx="53.84" cy="103.3" r="3.28"/><circle class="cls-8" cx="53.84" cy="81.68" r="3.28"/><circle class="cls-8" cx="53.84" cy="60.06" r="3.28"/><circle class="cls-8" cx="53.84" cy="38.11" r="3.28"/><circle class="cls-8" cx="68.28" cy="199.89" r="3.28"/><circle class="cls-8" cx="68.28" cy="178.59" r="3.28"/><circle class="cls-8" cx="68.28" cy="157.08" r="3.28"/><circle class="cls-8" cx="68.28" cy="135.46" r="3.28"/><circle class="cls-8" cx="68.28" cy="113.83" r="3.28"/><circle class="cls-8" cx="68.28" cy="92.21" r="3.28"/><circle class="cls-8" cx="68.28" cy="70.59" r="3.28"/><circle class="cls-8" cx="68.28" cy="48.64" r="3.28"/><circle class="cls-8" cx="81.63" cy="189.47" r="3.28"/><circle class="cls-8" cx="81.63" cy="168.17" r="3.28"/><circle class="cls-8" cx="81.63" cy="146.66" r="3.28"/><circle class="cls-8" cx="81.63" cy="125.03" r="3.28"/><circle class="cls-8" cx="81.63" cy="103.41" r="3.28"/><circle class="cls-8" cx="81.63" cy="81.79" r="3.28"/><circle class="cls-8" cx="81.63" cy="60.17" r="3.28"/><circle class="cls-8" cx="81.63" cy="38.22" r="3.28"/><circle class="cls-8" cx="96.5" cy="178.83" r="3.28"/><circle class="cls-8" cx="96.5" cy="157.53" r="3.28"/><circle class="cls-8" cx="96.5" cy="136.02" r="3.28"/><circle class="cls-8" cx="96.5" cy="114.4" r="3.28"/><circle class="cls-8" cx="96.5" cy="92.78" r="3.28"/><circle class="cls-8" cx="96.5" cy="71.15" r="3.28"/><circle class="cls-8" cx="96.5" cy="49.53" r="3.28"/><circle class="cls-8" cx="96.5" cy="27.58" r="3.28"/><circle class="cls-8" cx="110.29" cy="167" r="3.28"/><circle class="cls-8" cx="110.29" cy="145.7" r="3.28"/><circle class="cls-8" cx="110.29" cy="124.19" r="3.28"/><circle class="cls-8" cx="110.29" cy="102.56" r="3.28"/><circle class="cls-8" cx="110.29" cy="80.94" r="3.28"/><circle class="cls-8" cx="110.29" cy="59.32" r="3.28"/><circle class="cls-8" cx="110.29" cy="37.7" r="3.28"/><circle class="cls-8" cx="110.29" cy="15.75" r="3.28"/><circle class="cls-8" cx="138.69" cy="167" r="3.28"/><circle class="cls-8" cx="138.69" cy="145.7" r="3.28"/><circle class="cls-8" cx="138.69" cy="124.19" r="3.28"/><circle class="cls-8" cx="138.69" cy="102.56" r="3.28"/><circle class="cls-8" cx="138.69" cy="80.94" r="3.28"/><circle class="cls-8" cx="138.69" cy="59.32" r="3.28"/><circle class="cls-8" cx="138.69" cy="37.7" r="3.28"/><circle class="cls-8" cx="138.69" cy="15.75" r="3.28"/><circle class="cls-8" cx="152.91" cy="156.14" r="3.28"/><circle class="cls-8" cx="152.91" cy="134.84" r="3.28"/><circle class="cls-8" cx="152.91" cy="113.33" r="3.28"/><circle class="cls-8" cx="152.91" cy="91.71" r="3.28"/><circle class="cls-8" cx="152.91" cy="70.09" r="3.28"/><circle class="cls-8" cx="152.91" cy="48.47" r="3.28"/><circle class="cls-8" cx="152.91" cy="26.85" r="3.28"/><circle class="cls-8" cx="152.91" cy="4.89" r="3.28"/><circle class="cls-8" cx="166.15" cy="145.61" r="3.28"/><circle class="cls-8" cx="166.15" cy="124.31" r="3.28"/><circle class="cls-8" cx="166.15" cy="102.8" r="3.28"/><circle class="cls-8" cx="166.15" cy="81.18" r="3.28"/><circle class="cls-8" cx="166.15" cy="59.56" r="3.28"/><circle class="cls-8" cx="166.15" cy="37.94" r="3.28"/><circle class="cls-8" cx="166.15" cy="16.32" r="3.28"/><circle class="cls-8" cx="181.02" cy="155.6" r="3.28"/><circle class="cls-8" cx="181.02" cy="134.3" r="3.28"/><circle class="cls-8" cx="181.02" cy="112.79" r="3.28"/><circle class="cls-8" cx="181.02" cy="91.17" r="3.28"/><circle class="cls-8" cx="181.02" cy="69.55" r="3.28"/><circle class="cls-8" cx="181.02" cy="47.92" r="3.28"/><circle class="cls-8" cx="181.02" cy="26.3" r="3.28"/><circle class="cls-8" cx="181.02" cy="4.35" r="3.28"/><circle class="cls-8" cx="194.48" cy="145.29" r="3.28"/><circle class="cls-8" cx="194.48" cy="123.99" r="3.28"/><circle class="cls-8" cx="194.48" cy="102.48" r="3.28"/><circle class="cls-8" cx="194.48" cy="80.85" r="3.28"/><circle class="cls-8" cx="194.48" cy="59.23" r="3.28"/><circle class="cls-8" cx="194.48" cy="37.61" r="3.28"/><circle class="cls-8" cx="194.48" cy="15.99" r="3.28"/><circle class="cls-8" cx="209.03" cy="133.67" r="3.28"/><circle class="cls-8" cx="209.03" cy="112.37" r="3.28"/><circle class="cls-8" cx="209.03" cy="90.86" r="3.28"/><circle class="cls-8" cx="209.03" cy="69.24" r="3.28"/><circle class="cls-8" cx="209.03" cy="47.62" r="3.28"/><circle class="cls-8" cx="209.03" cy="26" r="3.28"/><circle class="cls-8" cx="209.03" cy="4.38" r="3.28"/><circle class="cls-8" cx="222.38" cy="123.04" r="3.28"/><circle class="cls-8" cx="222.38" cy="101.74" r="3.28"/><circle class="cls-8" cx="222.38" cy="80.22" r="3.28"/><circle class="cls-8" cx="222.38" cy="58.6" r="3.28"/><circle class="cls-8" cx="222.38" cy="36.98" r="3.28"/><circle class="cls-8" cx="222.38" cy="15.36" r="3.28"/><circle class="cls-8" cx="236.93" cy="133.78" r="3.28"/><circle class="cls-8" cx="236.93" cy="112.48" r="3.28"/><circle class="cls-8" cx="236.93" cy="90.97" r="3.28"/><circle class="cls-8" cx="236.93" cy="69.35" r="3.28"/><circle class="cls-8" cx="236.93" cy="47.73" r="3.28"/><circle class="cls-8" cx="236.93" cy="26.11" r="3.28"/><circle class="cls-8" cx="236.93" cy="4.48" r="3.28"/><circle class="cls-8" cx="251.36" cy="123.25" r="3.28"/><circle class="cls-8" cx="251.36" cy="101.95" r="3.28"/><circle class="cls-8" cx="251.36" cy="80.44" r="3.28"/><circle class="cls-8" cx="251.36" cy="58.82" r="3.28"/><circle class="cls-8" cx="251.36" cy="37.2" r="3.28"/><circle class="cls-8" cx="251.36" cy="15.58" r="3.28"/><circle class="cls-8" cx="265.15" cy="112.67" r="3.28"/><circle class="cls-8" cx="265.15" cy="91.37" r="3.28"/><circle class="cls-8" cx="265.15" cy="69.86" r="3.28"/><circle class="cls-8" cx="265.15" cy="48.24" r="3.28"/><circle class="cls-8" cx="265.15" cy="26.62" r="3.28"/><circle class="cls-8" cx="265.15" cy="4.99" r="3.28"/><circle class="cls-8" cx="278.8" cy="100.51" r="3.28"/><circle class="cls-8" cx="278.8" cy="79.21" r="3.28"/><circle class="cls-8" cx="278.8" cy="57.7" r="3.28"/><circle class="cls-8" cx="278.8" cy="36.08" r="3.28"/><circle class="cls-8" cx="278.8" cy="14.46" r="3.28"/><circle class="cls-8" cx="293.24" cy="89.87" r="3.28"/><circle class="cls-8" cx="293.24" cy="68.58" r="3.28"/><circle class="cls-8" cx="293.24" cy="47.06" r="3.28"/><circle class="cls-8" cx="293.24" cy="25.44" r="3.28"/><circle class="cls-8" cx="293.24" cy="3.82" r="3.28"/><circle class="cls-8" cx="306.7" cy="100.3" r="3.28"/><circle class="cls-8" cx="306.7" cy="79" r="3.28"/><circle class="cls-8" cx="306.7" cy="57.48" r="3.28"/><circle class="cls-8" cx="306.7" cy="35.86" r="3.28"/><circle class="cls-8" cx="306.7" cy="14.24" r="3.28"/><circle class="cls-8" cx="321.25" cy="89.77" r="3.28"/><circle class="cls-8" cx="321.25" cy="68.47" r="3.28"/><circle class="cls-8" cx="321.25" cy="46.95" r="3.28"/><circle class="cls-8" cx="321.25" cy="25.33" r="3.28"/><circle class="cls-8" cx="321.25" cy="3.71" r="3.28"/><circle class="cls-8" cx="335.14" cy="79.45" r="3.28"/><circle class="cls-8" cx="335.14" cy="58.16" r="3.28"/><circle class="cls-8" cx="335.14" cy="36.64" r="3.28"/><circle class="cls-8" cx="335.14" cy="15.02" r="3.28"/><circle class="cls-8" cx="349.36" cy="68.06" r="3.28"/><circle class="cls-8" cx="349.36" cy="46.76" r="3.28"/><circle class="cls-8" cx="349.36" cy="25.24" r="3.28"/><circle class="cls-8" cx="349.36" cy="3.62" r="3.28"/><circle class="cls-8" cx="363.04" cy="78.48" r="3.28"/><circle class="cls-8" cx="363.04" cy="57.18" r="3.28"/><circle class="cls-8" cx="363.04" cy="35.67" r="3.28"/><circle class="cls-8" cx="363.04" cy="14.04" r="3.28"/><circle class="cls-8" cx="377.58" cy="68.27" r="3.28"/><circle class="cls-8" cx="377.58" cy="46.97" r="3.28"/><circle class="cls-8" cx="377.58" cy="25.46" r="3.28"/><circle class="cls-8" cx="377.58" cy="3.84" r="3.28"/><circle class="cls-8" cx="392.13" cy="57.74" r="3.28"/><circle class="cls-8" cx="392.13" cy="36.45" r="3.28"/><circle class="cls-8" cx="392.13" cy="14.93" r="3.28"/><circle class="cls-8" cx="124.73" cy="177.74" r="3.28"/><circle class="cls-8" cx="124.73" cy="156.45" r="3.28"/><circle class="cls-8" cx="124.73" cy="134.93" r="3.28"/><circle class="cls-8" cx="124.73" cy="113.31" r="3.28"/><circle class="cls-8" cx="124.73" cy="91.69" r="3.28"/><circle class="cls-8" cx="124.73" cy="70.07" r="3.28"/><circle class="cls-8" cx="124.73" cy="48.45" r="3.28"/><circle class="cls-8" cx="124.73" cy="26.5" r="3.28"/><circle class="cls-8" cx="39.73" cy="199.84" r="3.28"/><circle class="cls-8" cx="39.73" cy="178.54" r="3.28"/><circle class="cls-8" cx="39.73" cy="157.02" r="3.28"/><circle class="cls-8" cx="39.73" cy="135.4" r="3.28"/><circle class="cls-8" cx="39.73" cy="113.78" r="3.28"/><circle class="cls-8" cx="39.73" cy="92.16" r="3.28"/><circle class="cls-8" cx="39.73" cy="70.54" r="3.28"/><circle class="cls-8" cx="39.73" cy="48.59" r="3.28"/></g></g><polygon class="cls-9" points="583.13 194.44 499.79 111.11 83.13 111.11 83.13 333.33 583.13 333.33 583.13 194.44"/><line class="cls-10" x1="138.69" y1="208.59" x2="499.79" y2="208.59"/><line class="cls-10" x1="138.69" y1="166.67" x2="499.79" y2="166.67"/><path class="cls-11" d="M283.13,250h100a27.78,27.78,0,0,1,27.78,27.78v0a27.77,27.77,0,0,1-27.77,27.77h-100a27.77,27.77,0,0,1-27.77-27.77v0A27.77,27.77,0,0,1,283.13,250Z"/><g class="cls-12"><polygon class="cls-13" points="221.16 329.6 398.94 225.95 221.16 225.95 221.16 329.6"/></g><text class="cls-14" transform="translate(322.42 291.4)">$</text></svg>