<?xml version="1.0" encoding="utf-8"?>
<!-- Generator: Adobe Illustrator 24.2.0, SVG Export Plug-In . SVG Version: 6.00 Build 0)  -->
<svg version="1.1" id="Layer_1" xmlns="http://www.w3.org/2000/svg" xmlns:xlink="http://www.w3.org/1999/xlink" x="0px" y="0px"
	 viewBox="0 0 500 500" style="enable-background:new 0 0 500 500;" xml:space="preserve">
<style type="text/css">
	.st0{fill:#65A798;}
	.st1{enable-background:new    ;}
	.st2{fill:#FFFFFF;}
</style>
<image style="overflow:visible;opacity:5.000000e-02;enable-background:new    ;" width="442" height="388" xlink:href="FA1443DC6A171906.png"  transform="matrix(1 0 0 1 36 63)">
</image>
<path class="st0" d="M413.7,115.5c37.2,35.3,50,101.8,36.7,163.6S398.1,397.9,346.5,419s-115.8,6.3-169.8-22.4S79,325,58.1,267.2
	S38.8,136.7,75,101.8S181.6,69.6,247.9,73S376.3,80.3,413.7,115.5z"/>
<g class="st1">
	<path class="st2" d="M172.4,254v-5.2l4.1-0.5c0.9-0.1,1-0.3,1-1.3v-33.5c0-1-0.1-1.2-1-1.3l-4.1-0.5v-5.2h22.2
		c12.1,0,15.8,6.4,15.8,14c0,11.4-6.9,16-18,16h-4.8v10.5c0,1,0.1,1.2,1,1.3l9.4,0.5v5.2H172.4z M190.9,229.4c4.3,0,9.1-1,9.1-8.4
		c0-6.3-3.9-7.4-8.5-7.4h-3.9v15.8H190.9z"/>
	<path class="st2" d="M214.3,254v-6.1l8.8-8.6c6.6-6.4,9.4-9.1,9.4-12.8c0-2.4-1.2-4.2-4.7-4.2c-3.6,0-5.1,1.2-5.1,5.8l-8.9-0.8
		c0.1-10.4,8-12.1,14.9-12.1c10.2,0,13.8,4.3,13.8,10.5s-4.3,10.2-9.1,14.8l-7.4,7.1h9.6c0.7,0,0.9-0.1,1-0.8l0.9-5.2h7V254H214.3z"
		/>
	<path class="st2" d="M249.1,254v-5.2l4.1-0.5c0.9-0.1,1-0.3,1-1.3v-33.5c0-1-0.1-1.2-1-1.3l-4.1-0.5v-5.2h22.2
		c12.1,0,15.8,6.4,15.8,14c0,11.4-6.9,16-18,16h-4.8v10.5c0,1,0.1,1.2,1,1.3l9.4,0.5v5.2H249.1z M267.7,229.4c4.3,0,9.1-1,9.1-8.4
		c0-6.3-3.9-7.4-8.5-7.4h-3.9v15.8H267.7z"/>
	<path class="st2" d="M291.5,254v-5.1l4.1-0.5c0.9-0.1,1-0.3,1-1.3v-33.7c0-1-0.1-1.2-1-1.3l-4.1-0.5v-5.2h34.9v13.2l-7.2-0.3
		l-0.9-5c-0.1-0.7-0.4-0.9-1.1-0.9h-10.3v12.9h15.3v7.3h-15.3v13.2h11.7c0.7,0,0.9-0.1,1-0.7l1-5.8h7.2V254H291.5z"/>
</g>
<g class="st1">
	<path class="st2" d="M140.9,270.1c1.5,0,2.8,0.2,3.9,0.5c1.1,0.4,2,0.8,2.8,1.5c0.7,0.6,1.3,1.4,1.6,2.3s0.5,1.9,0.5,3.1
		c0,1.1-0.2,2.1-0.6,3.1c-0.4,0.9-1,1.7-1.7,2.4s-1.7,1.2-2.8,1.6s-2.4,0.6-3.8,0.6h-3.8v9h-3.2v-23.9H140.9z M140.9,282.5
		c0.9,0,1.7-0.1,2.4-0.4c0.7-0.2,1.3-0.6,1.8-1c0.5-0.4,0.8-1,1.1-1.6c0.2-0.6,0.4-1.3,0.4-2c0-1.5-0.5-2.7-1.4-3.6
		c-0.9-0.9-2.4-1.3-4.3-1.3h-3.8v9.9H140.9z"/>
	<path class="st2" d="M170.7,289.1c0.2,0,0.3,0.1,0.5,0.2l1.3,1.4c-1,1.1-2.2,2-3.6,2.7c-1.4,0.6-3.1,1-5.1,1
		c-1.7,0-3.3-0.3-4.7-0.9s-2.6-1.4-3.6-2.5c-1-1.1-1.8-2.4-2.3-3.9s-0.8-3.2-0.8-5s0.3-3.5,0.9-5c0.6-1.5,1.4-2.8,2.4-3.9
		c1-1.1,2.3-1.9,3.7-2.5s3-0.9,4.8-0.9c1.7,0,3.2,0.3,4.5,0.8s2.4,1.3,3.4,2.2l-1.1,1.5c-0.1,0.1-0.2,0.2-0.3,0.3
		c-0.1,0.1-0.2,0.1-0.4,0.1c-0.2,0-0.4-0.1-0.7-0.3s-0.7-0.5-1.1-0.7c-0.5-0.3-1.1-0.5-1.8-0.7c-0.7-0.2-1.6-0.3-2.6-0.3
		c-1.2,0-2.4,0.2-3.4,0.6c-1,0.4-1.9,1-2.6,1.9s-1.3,1.8-1.7,3c-0.4,1.2-0.6,2.5-0.6,4c0,1.5,0.2,2.8,0.6,4c0.4,1.2,1,2.2,1.8,3
		c0.7,0.8,1.6,1.4,2.6,1.8c1,0.4,2.1,0.6,3.3,0.6c0.7,0,1.4,0,1.9-0.1c0.6-0.1,1.1-0.2,1.6-0.4c0.5-0.2,0.9-0.4,1.4-0.7
		c0.4-0.3,0.8-0.6,1.2-1C170.3,289.2,170.5,289.1,170.7,289.1z"/>
	<path class="st2" d="M179.5,294h-3.2v-23.9h3.2V294z"/>
</g>
<g class="st1">
	<path class="st2" d="M212.4,270.1l-9.8,23.9h-2.9l-9.8-23.9h2.6c0.3,0,0.5,0.1,0.7,0.2c0.2,0.1,0.3,0.3,0.4,0.6l6.7,16.9
		c0.1,0.4,0.3,0.8,0.4,1.2s0.3,0.9,0.4,1.4c0.1-0.5,0.2-1,0.4-1.4s0.3-0.9,0.4-1.2l6.7-16.9c0.1-0.2,0.2-0.4,0.4-0.5
		c0.2-0.2,0.4-0.2,0.7-0.2H212.4z"/>
</g>
<g class="st1">
	<path class="st2" d="M233.2,294h-2.5c-0.3,0-0.5-0.1-0.7-0.2c-0.2-0.1-0.3-0.3-0.4-0.6l-2.2-5.8h-10.7l-2.2,5.8
		c-0.1,0.2-0.2,0.4-0.4,0.5c-0.2,0.2-0.4,0.2-0.7,0.2h-2.5l9.6-23.9h3.3L233.2,294z M226.4,285.1l-3.8-9.7c-0.1-0.3-0.2-0.6-0.4-1
		c-0.1-0.4-0.2-0.8-0.4-1.2c-0.2,0.9-0.5,1.7-0.7,2.3l-3.8,9.7H226.4z"/>
	<path class="st2" d="M249.9,291.3v2.7h-13.6v-23.9h3.2v21.2H249.9z"/>
	<path class="st2" d="M256.7,294h-3.2v-23.9h3.2V294z"/>
</g>
<g class="st1">
	<path class="st2" d="M283.6,282.1c0,1.8-0.3,3.4-0.9,4.9c-0.6,1.5-1.4,2.7-2.4,3.8c-1,1-2.3,1.9-3.7,2.4c-1.5,0.6-3.1,0.9-4.8,0.9
		h-8.9v-23.9h8.9c1.8,0,3.4,0.3,4.8,0.9c1.5,0.6,2.7,1.4,3.7,2.4c1,1.1,1.8,2.3,2.4,3.8C283.3,278.6,283.6,280.3,283.6,282.1z
		 M280.3,282.1c0-1.5-0.2-2.8-0.6-3.9s-1-2.1-1.7-2.9c-0.7-0.8-1.6-1.4-2.7-1.8c-1-0.4-2.2-0.6-3.5-0.6h-5.7v18.7h5.7
		c1.3,0,2.5-0.2,3.5-0.6c1-0.4,1.9-1,2.7-1.8c0.7-0.8,1.3-1.8,1.7-2.9C280.1,284.9,280.3,283.5,280.3,282.1z"/>
</g>
<g class="st1">
	<path class="st2" d="M307,294h-2.5c-0.3,0-0.5-0.1-0.7-0.2c-0.2-0.1-0.3-0.3-0.4-0.6l-2.2-5.8h-10.7l-2.2,5.8
		c-0.1,0.2-0.2,0.4-0.4,0.5c-0.2,0.2-0.4,0.2-0.7,0.2h-2.5l9.6-23.9h3.3L307,294z M300.3,285.1l-3.8-9.7c-0.1-0.3-0.2-0.6-0.4-1
		s-0.2-0.8-0.4-1.2c-0.2,0.9-0.5,1.7-0.7,2.3l-3.8,9.7H300.3z"/>
</g>
<g class="st1">
	<path class="st2" d="M324,272.8h-7.7V294h-3.2v-21.2h-7.8v-2.7H324V272.8z"/>
	<path class="st2" d="M342.3,291.4l0,2.6h-14.7v-23.9h14.7v2.6h-11.5v7.9h9.3v2.5h-9.3v8.2H342.3z"/>
	<path class="st2" d="M367.6,282.1c0,1.8-0.3,3.4-0.9,4.9s-1.4,2.7-2.4,3.8c-1,1-2.3,1.9-3.7,2.4c-1.5,0.6-3.1,0.9-4.8,0.9h-8.9
		v-23.9h8.9c1.8,0,3.4,0.3,4.8,0.9c1.5,0.6,2.7,1.4,3.7,2.4s1.8,2.3,2.4,3.8S367.6,280.3,367.6,282.1z M364.3,282.1
		c0-1.5-0.2-2.8-0.6-3.9c-0.4-1.2-1-2.1-1.7-2.9s-1.6-1.4-2.7-1.8c-1-0.4-2.2-0.6-3.5-0.6h-5.7v18.7h5.7c1.3,0,2.5-0.2,3.5-0.6
		c1-0.4,1.9-1,2.7-1.8s1.3-1.8,1.7-2.9C364.1,284.9,364.3,283.5,364.3,282.1z"/>
</g>
</svg>
