<?xml version="1.0" encoding="utf-8"?>
<!-- Generator: Adobe Illustrator 24.2.0, SVG Export Plug-In . SVG Version: 6.00 Build 0)  -->
<svg version="1.1" id="Layer_1" xmlns="http://www.w3.org/2000/svg" xmlns:xlink="http://www.w3.org/1999/xlink" x="0px" y="0px"
	 viewBox="0 0 500 500" style="enable-background:new 0 0 500 500;" xml:space="preserve">
<style type="text/css">
	.st0{fill:#65A798;}
	.st1{enable-background:new    ;}
	.st2{fill:#FFFFFF;}
</style>
<image style="overflow:visible;opacity:5.000000e-02;enable-background:new    ;" width="358" height="388" xlink:href="EDB406A9B46F00FA.png"  transform="matrix(1 0 0 1 78 63)">
</image>
<path class="st0" d="M346,164.1c35.7,43.7,70.7,88.9,66.8,132.7s-47.1,86.2-98.4,110.5s-110.7,30.3-150.7,6.8s-60.5-76.4-70.7-129.3
	s-9.9-105.7,16-147.2s77.3-71.8,121.2-65.7S310.3,120.3,346,164.1z"/>
<g class="st1">
	<path class="st2" d="M187.6,220.2l-0.8-5.3c-0.1-0.8-0.3-1-0.8-1.2c-1-0.3-2.6-0.7-4.8-0.7c-4.9,0-7.3,2.2-7.3,5.6
		c0,4.3,4.5,5.5,9.4,7c6.2,1.9,13.2,4.3,13.2,14.1c0,10.8-8.4,15-18.4,15c-5.9,0-12.5-1.5-15-2.7v-12.8h7.3l1.3,6.2
		c0.1,0.8,0.3,1,1.1,1.2c0.8,0.2,3,0.7,5.5,0.7c5.3,0,8.3-2.1,8.3-6.1c0-4.2-3.7-5.5-8.1-6.8c-6.5-1.8-14.5-3.6-14.5-14.2
		c0-10.1,7.6-14.8,17.6-14.8c5.6,0,10.5,1.4,13.4,2.6v12.8L187.6,220.2z"/>
	<path class="st2" d="M201,230.1c0-14,7.9-24.7,23.5-24.7c15.5,0,22.2,10.7,22.2,23.9c0,15.4-7.5,25.3-23.2,25.3
		C207.7,254.5,201,244.4,201,230.1z M236.3,229.9c0-11.3-4.5-16.2-11.9-16.2c-7.5,0-12.9,5-12.9,16.3c0,11.8,4.9,16.5,12.5,16.5
		C231.3,246.5,236.3,241.9,236.3,229.9z"/>
	<path class="st2" d="M290.2,250.9c-3.9,2.4-10.4,3.6-16.4,3.6c-16.3,0-23-9.5-23-24.7c0-14,8.1-24.4,24.4-24.4
		c5.4,0,11.3,1.4,14.9,3.7V222l-7.2-0.6l-1-6.4c-0.1-0.7-0.4-1-1-1.2c-1.4-0.5-3.7-0.8-5.8-0.8c-8.3,0-13.6,5.6-13.6,16.8
		c0,11.6,5.1,17.3,13.2,17.3c2.2,0,4.9-0.3,6.6-0.9c0.8-0.2,1-0.4,1.2-1.4l1-6.1h7V250.9z"/>
	<path class="st2" d="M308.5,253.8v-6.1l8.8-8.6c6.6-6.4,9.4-9.1,9.4-12.8c0-2.4-1.2-4.2-4.7-4.2c-3.6,0-5.1,1.2-5.1,5.8l-8.9-0.8
		c0.1-10.4,8-12.1,14.9-12.1c10.2,0,13.8,4.3,13.8,10.5s-4.3,10.2-9.1,14.8l-7.4,7.1h9.6c0.7,0,0.9-0.1,1-0.8l0.9-5.2h7v12.3H308.5z
		"/>
</g>
<g class="st1">
	<path class="st2" d="M216.1,272.6h-7.7v21.2h-3.2v-21.2h-7.8v-2.7h18.7V272.6z"/>
	<path class="st2" d="M228.6,284.3v9.5h-3.2v-9.5l-8.8-14.4h2.8c0.3,0,0.5,0.1,0.7,0.2c0.2,0.1,0.3,0.3,0.4,0.5l5.5,9.3
		c0.2,0.4,0.4,0.8,0.6,1.1c0.2,0.3,0.3,0.7,0.4,1c0.1-0.3,0.3-0.7,0.4-1c0.2-0.3,0.3-0.7,0.5-1.1l5.5-9.3c0.1-0.2,0.2-0.4,0.4-0.5
		s0.4-0.2,0.7-0.2h2.9L228.6,284.3z"/>
	<path class="st2" d="M247.5,269.9c1.5,0,2.8,0.2,4,0.5c1.1,0.4,2,0.8,2.8,1.5s1.3,1.4,1.6,2.3c0.4,0.9,0.5,1.9,0.5,3.1
		c0,1.1-0.2,2.1-0.6,3.1c-0.4,0.9-1,1.7-1.7,2.4c-0.8,0.7-1.7,1.2-2.8,1.6c-1.1,0.4-2.4,0.6-3.8,0.6h-3.8v9h-3.2v-23.9H247.5z
		 M247.5,282.3c0.9,0,1.7-0.1,2.4-0.4c0.7-0.2,1.3-0.6,1.8-1c0.5-0.4,0.8-1,1.1-1.6c0.2-0.6,0.4-1.3,0.4-2c0-1.5-0.5-2.7-1.4-3.6
		c-0.9-0.9-2.4-1.3-4.3-1.3h-3.8v9.9H247.5z"/>
	<path class="st2" d="M275.3,291.2l0,2.6h-14.7v-23.9h14.7v2.6h-11.5v7.9h9.3v2.5h-9.3v8.2H275.3z"/>
	<path class="st2" d="M291.6,293.8h-3.2v-23.9h3.2V293.8z"/>
	<path class="st2" d="M301,293.8h-3.2v-23.9h3.2V293.8z"/>
</g>
</svg>
